<?xml version="1.0" encoding="utf-8"?>
<!-- Generator: Adobe Illustrator 28.0.0, SVG Export Plug-In . SVG Version: 6.00 Build 0)  -->
<svg version="1.1" id="Layer_2_00000062884248535480285990000004373137242482163379_"
	 xmlns="http://www.w3.org/2000/svg" xmlns:xlink="http://www.w3.org/1999/xlink" x="0px" y="0px" viewBox="0 0 697.3 199.9"
	 style="enable-background:new 0 0 697.3 199.9;" xml:space="preserve">
<style type="text/css">
	.st0{clip-path:url(#SVGID_00000146457764786416873950000014678246044373282719_);fill:#18401D;}
</style>
<g>
	<defs>
		<rect id="SVGID_1_" x="18.5" y="5.3" width="660.3" height="189.3"/>
	</defs>
	<clipPath id="SVGID_00000105409347310799732130000008560424221564923561_">
		<use xlink:href="#SVGID_1_"  style="overflow:visible;"/>
	</clipPath>
	<path style="clip-path:url(#SVGID_00000105409347310799732130000008560424221564923561_);fill:#18401D;" d="M23.2,127.2
		c0.4-4.4,0.7-7.5,0.7-9.5V24.9c0-2-0.2-5.1-0.7-9.5c-0.4-4.4-1.1-6.9-2-7.7V7.6h12.6L79.1,113V24.9c0-2-0.2-5.1-0.7-9.5
		c-0.4-4.4-1.1-6.9-2-7.7V7.6h9.3v0.2c-0.9,0.8-1.5,3.3-2,7.7c-0.4,4.4-0.7,7.5-0.7,9.5v110.2h-4.6l-50.7-117v99.7
		c0,2,0.2,5.1,0.7,9.5c0.4,4.4,1.1,6.9,2,7.7v0.2h-9.3v-0.2C22.1,134.2,22.7,131.6,23.2,127.2"/>
	<path style="clip-path:url(#SVGID_00000105409347310799732130000008560424221564923561_);fill:#18401D;" d="M237.6,127.2
		c0.4-4.4,0.7-7.5,0.7-9.5V24.9c0-2-0.2-5.1-0.7-9.5c-0.4-4.4-1.1-6.9-2-7.7V7.6h27.8c3.7,0,7.7,1,12,3c4.3,2,8,5.3,11,9.9
		c3,4.6,4.6,10.4,4.6,17.5c0,7.2-2,13.5-6,19c-4,5.5-8.9,9-14.8,10.5c7.4,1.6,13.9,5.3,19.4,11.1c5.6,5.8,8.3,13.5,8.3,23
		c0,22-11.4,33.1-34.2,33.3h-28.3v-0.2C236.5,134.2,237.2,131.6,237.6,127.2 M272.1,62.8c2.7-2.6,4.9-6.1,6.5-10.5
		c1.6-4.4,2.4-9.2,2.4-14.3c0-8.7-1.5-15.4-4.6-20.2c-3.1-4.7-7.4-7.1-13.1-7.1l-10.3,0.2c-1.4,0-2.7,0.2-3.8,0.7
		c-1.1,0.4-1.6,1.3-1.6,2.4v49.7c0,1.2,0.5,2,1.6,2.4c1.1,0.4,2.3,0.7,3.8,0.7h10.3C266.5,66.8,269.4,65.5,272.1,62.8 M281.1,125.7
		c4.7-4.3,7-12.3,7-23.9c0-7.1-1.4-13-4.1-17.7c-2.7-4.7-6-8.2-9.9-10.5c-3.9-2.3-7.5-3.4-10.9-3.4h-10.1c-1.4,0-2.7,0.2-3.8,0.6
		c-1.1,0.4-1.6,1.3-1.6,2.5v55.6c0,1.2,0.5,2,1.6,2.4c1.1,0.4,2.3,0.7,3.8,0.7l10.8,0.2C270.7,132.1,276.4,130,281.1,125.7"/>
	<path style="clip-path:url(#SVGID_00000105409347310799732130000008560424221564923561_);fill:#18401D;" d="M307.4,127.2
		c0.4-4.4,0.7-7.5,0.7-9.5V24.9c0-2-0.2-5.1-0.7-9.5s-1.1-6.9-2-7.7V7.6h14.7v0.2c-0.9,0.8-1.5,3.3-2,7.7c-0.4,4.4-0.6,7.5-0.6,9.5
		v103.8c0,1.2,0.5,2,1.6,2.5c1.1,0.4,2.3,0.6,3.8,0.6h26c2,0,5.1-0.4,9.5-1.3c4.4-0.9,6.9-2.2,7.7-3.9h0.2v8.5h-60.8v-0.2
		C306.3,134.2,307,131.6,307.4,127.2"/>
	<path style="clip-path:url(#SVGID_00000105409347310799732130000008560424221564923561_);fill:#18401D;" d="M375.6,127.2
		c0.4-4.4,0.7-7.5,0.7-9.5V24.9c0-2-0.2-5.1-0.7-9.5c-0.4-4.4-1.1-6.9-2-7.7V7.6l56.1,0.2v8.7h-0.2c-0.8-1.7-3.3-3.1-7.7-3.9
		c-4.4-0.9-7.5-1.3-9.5-1.3h-21.3c-1.4,0-2.7,0.2-3.8,0.7c-1.1,0.4-1.6,1.3-1.6,2.4v49.4c0,1.2,0.5,2,1.6,2.4
		c1.1,0.4,2.3,0.7,3.8,0.7h16.8c2,0,5.1-0.2,9.5-0.7c4.4-0.4,6.9-1.1,7.7-2h0.2v8.5h-0.2c-0.8-0.9-3.3-1.5-7.7-2
		c-4.4-0.4-7.5-0.7-9.5-0.7h-16.8c-1.4,0-2.7,0.2-3.8,0.7c-1.1,0.4-1.6,1.3-1.6,2.4v55.3c0,1.2,0.5,2,1.6,2.4
		c1.1,0.4,2.3,0.7,3.8,0.7h26c2,0,5.1-0.4,9.5-1.3c4.4-0.9,6.9-2.2,7.7-3.9h0.2v8.8h-60.8v-0.2C374.5,134.2,375.1,131.6,375.6,127.2
		"/>
	<path style="clip-path:url(#SVGID_00000105409347310799732130000008560424221564923561_);fill:#18401D;" d="M470.4,129
		c-10.2-5.8-18.5-13.7-24.8-23.9c-6.3-10.1-9.5-21.4-9.5-33.8c0-12.3,3.2-23.5,9.5-33.6c6.3-10.1,14.6-18,24.9-23.8
		c10.3-5.8,21.1-8.7,32.4-8.7c8.1,0,15.7,1.6,23,4.7c7.3,3.1,13.8,7.4,19.5,13l-3.4,6.7c-4.9-6.4-10.7-11.5-17.5-15.2
		c-6.8-3.7-14-5.6-21.6-5.6c-9.5,0-18.6,2.8-27.4,8.4c-8.8,5.6-15.9,13.2-21.3,22.7c-5.4,9.5-8.1,20-8.1,31.3
		c0,11.4,2.7,22,8.1,31.5c5.4,9.6,12.5,17.2,21.3,22.8c8.8,5.6,17.9,8.4,27.4,8.4c7,0,13.6-1.6,19.9-4.7c6.3-3.2,11.9-7.6,16.8-13.2
		l5.7,4.4c-5.7,5.3-12.2,9.5-19.5,12.6c-7.4,3.1-15,4.6-23,4.6C491.5,137.7,480.6,134.8,470.4,129"/>
	<path style="clip-path:url(#SVGID_00000105409347310799732130000008560424221564923561_);fill:#18401D;" d="M579.9,128.2
		c-10.1-5.9-18.1-13.9-24-23.9c-5.9-10-8.9-21-8.9-32.9s3-22.9,8.9-33c5.9-10.1,13.9-18.1,24-24c10.1-5.9,21.1-8.9,33-8.9
		c11.9,0,22.9,3,33,8.9c10.1,5.9,18.1,13.9,24,24c5.9,10.1,8.9,21.1,8.9,33s-3,22.9-8.9,32.9c-5.9,10-13.9,18-24,23.9
		c-10.1,5.9-21.1,8.9-33,8.9C601,137,590,134.1,579.9,128.2 M640.3,125.1c8.4-5.6,15.1-13.1,20-22.6s7.4-19.9,7.4-31.2
		c0-11.3-2.5-21.7-7.4-31.2c-4.9-9.5-11.6-17.1-19.9-22.7c-8.3-5.6-17.5-8.4-27.5-8.4c-10,0-19.1,2.8-27.5,8.4
		c-8.4,5.6-15,13.1-19.9,22.7c-4.9,9.5-7.4,20-7.4,31.2c0,11.3,2.5,21.7,7.4,31.2c4.9,9.5,11.6,17,20,22.6
		c8.4,5.6,17.5,8.4,27.4,8.4C622.8,133.5,631.9,130.7,640.3,125.1"/>
	<path style="clip-path:url(#SVGID_00000105409347310799732130000008560424221564923561_);fill:#18401D;" d="M166.9,5.6
		c9.6,0.8,18.7,3.7,27,8.6c10.1,5.9,18.2,14,24.1,24.1c5.9,10.1,8.9,21.2,8.9,33.2c0,12-3,23-8.9,33.1c-5.9,10.1-14,18.1-24.1,24
		c-8,4.7-16.6,7.5-25.7,8.5l1.4-4c6.6-1.2,12.8-3.7,18.7-7.6c8.4-5.6,15.1-13.2,20.1-22.7c5-9.5,7.4-20,7.4-31.3
		c0-11.3-2.5-21.8-7.4-31.4c-5-9.6-11.6-17.2-20-22.8c-6.2-4.2-12.9-6.8-20-7.9L166.9,5.6z M153.2,9.5c-7.1,1.1-13.8,3.7-20,7.9
		c-8.4,5.6-15.1,13.2-20,22.8c-5,9.6-7.4,20.1-7.4,31.4c0,11.3,2.5,21.8,7.4,31.3c5,9.5,11.7,17.1,20.1,22.7
		c5.9,3.9,12.1,6.5,18.8,7.7l1.3,4c-9.1-1-17.7-3.8-25.7-8.5c-10.1-5.9-18.2-13.9-24.1-24c-5.9-10.1-8.9-21.1-8.9-33.1
		c0-12,3-23.1,8.9-33.2c5.9-10.1,14-18.2,24.1-24.1c8.4-4.9,17.3-7.8,27-8.6L153.2,9.5z"/>
	<path style="clip-path:url(#SVGID_00000105409347310799732130000008560424221564923561_);fill:#18401D;" d="M50.2,193.7
		c0,0.2-0.1,0.3-0.2,0.3c-0.5,0-1.4,0-2.6-0.1c-1.1-0.1-2-0.1-2.5-0.1c-0.6,0-1.5,0-2.5,0.1c-1,0.1-1.7,0.1-2.2,0.1
		c-0.1,0-0.2-0.1-0.2-0.3c0-0.2,0.1-0.3,0.2-0.3c1.2,0,2.1-0.1,2.7-0.3c0.5-0.2,0.8-0.6,0.8-1.2c0-0.4-0.2-1-0.5-1.8l-10.2-22
		l0.9-0.8l-8.7,21c-0.4,1-0.6,1.9-0.6,2.5c0,0.9,0.4,1.5,1.1,1.9c0.7,0.4,1.9,0.6,3.4,0.6c0.1,0,0.2,0.1,0.2,0.3
		c0,0.2-0.1,0.3-0.2,0.3c-0.5,0-1.3,0-2.4-0.1c-1.1-0.1-2.1-0.1-3-0.1c-0.8,0-1.6,0-2.7,0.1c-0.9,0.1-1.6,0.1-2.2,0.1
		c-0.2,0-0.2-0.1-0.2-0.3c0-0.2,0.1-0.3,0.2-0.3c0.8,0,1.6-0.1,2.2-0.5c0.6-0.3,1.1-0.8,1.7-1.6c0.5-0.8,1.1-1.9,1.7-3.3l9.5-22.7
		c0.1-0.1,0.2-0.1,0.3-0.1c0.1,0,0.2,0,0.3,0.1l10.5,22.5c0.7,1.5,1.3,2.7,1.9,3.5c0.5,0.8,1.1,1.4,1.6,1.7c0.5,0.3,1.1,0.5,1.8,0.5
		C50.1,193.4,50.2,193.5,50.2,193.7 M28.1,180.2h11.7l0.3,0.8H27.7L28.1,180.2z"/>
	<path style="clip-path:url(#SVGID_00000105409347310799732130000008560424221564923561_);fill:#18401D;" d="M55.9,166.7l1,0.1
		l-0.4,22.4c0,1.6,0.2,2.6,0.8,3.3c0.5,0.6,1.5,0.9,3,0.9c0.1,0,0.1,0.1,0.1,0.3c0,0.2,0,0.3-0.1,0.3c-0.8,0-1.5,0-1.9,0l-2.4,0
		l-2.2,0c-0.4,0-1,0-1.8,0c-0.1,0-0.1-0.1-0.1-0.3c0-0.2,0-0.3,0.1-0.3c1.3,0,2.2-0.3,2.7-0.9c0.5-0.6,0.8-1.7,0.8-3.2L55.9,166.7z
		 M86.6,193.7c0,0.2,0,0.3-0.1,0.3c-0.9,0-1.7,0-2.2,0l-3,0l-2.8,0c-0.5,0-1.1,0-1.9,0c-0.1,0-0.1-0.1-0.1-0.3c0-0.2,0-0.3,0.1-0.3
		c1.1,0,1.8-0.1,2.3-0.3c0.5-0.2,0.8-0.5,1-0.9c0.2-0.4,0.2-1.1,0.2-2L79.2,168l1.3-1.7l-11.8,27.3c-0.1,0.1-0.2,0.2-0.4,0.2
		c-0.2,0-0.3-0.1-0.4-0.2l-11-24.2c-0.5-1.1-1.1-1.9-1.9-2.4c-0.8-0.5-1.7-0.8-2.8-0.8c-0.1,0-0.1-0.1-0.1-0.3c0-0.2,0-0.3,0.1-0.3
		l1.5,0c0.3,0,0.7,0,1.2,0c0.5,0,0.9,0,1.2,0c0.3,0,0.6,0,0.8,0c0.4,0,0.7,0.1,1,0.4c0.2,0.3,0.6,0.9,1.1,1.9l10.4,22.4l-1.2,1.9
		l11.1-25.5c0.1-0.3,0.4-0.6,0.6-0.8c0.3-0.2,0.5-0.3,0.7-0.3c0.1,0,0.3,0,0.6,0c0.3,0,0.6,0,1.1,0l2,0c0.3,0,0.8,0,1.4,0
		c0.1,0,0.1,0.1,0.1,0.3c0,0.2,0,0.3-0.1,0.3c-1.6,0-2.7,0.2-3.3,0.6c-0.6,0.4-1,1.2-0.9,2.4l0.9,21c0,0.9,0.1,1.6,0.3,2
		c0.2,0.4,0.6,0.7,1.1,0.9c0.6,0.2,1.4,0.2,2.6,0.2C86.6,193.4,86.6,193.5,86.6,193.7"/>
	<path style="clip-path:url(#SVGID_00000105409347310799732130000008560424221564923561_);fill:#18401D;" d="M89.3,193.7
		c0-0.2,0-0.3,0.1-0.3c1.2,0,2-0.1,2.6-0.2c0.6-0.2,0.9-0.4,1.1-0.9c0.2-0.4,0.3-1.1,0.3-2v-20.9c0-0.9-0.1-1.6-0.3-2
		c-0.2-0.4-0.6-0.7-1.1-0.9c-0.6-0.2-1.4-0.2-2.6-0.2c-0.1,0-0.1-0.1-0.1-0.3c0-0.2,0-0.3,0.1-0.3h17.9c0.3,0,0.4,0.1,0.4,0.4
		l0.1,5.5c0,0.1-0.1,0.1-0.2,0.1c-0.2,0-0.3,0-0.3-0.1c0-1.5-0.4-2.8-1.2-3.7c-0.8-0.9-1.9-1.4-3.2-1.4h-3.1c-1.2,0-2,0.1-2.5,0.2
		c-0.5,0.2-0.9,0.4-1.1,0.9c-0.2,0.4-0.3,1.1-0.3,2v20.5c0,0.9,0.1,1.5,0.3,1.9c0.2,0.4,0.6,0.7,1.1,0.8c0.5,0.2,1.4,0.2,2.6,0.2
		h4.2c1.2,0,2.2-0.5,3.1-1.6c0.9-1.1,1.4-2.4,1.6-4.2c0-0.1,0.1-0.1,0.3-0.1c0.2,0,0.3,0.1,0.3,0.2c-0.3,1.9-0.4,3.9-0.4,5.9
		c0,0.2,0,0.4-0.2,0.5c-0.1,0.1-0.3,0.2-0.6,0.2H89.4C89.3,193.9,89.3,193.9,89.3,193.7 M104.6,180.5c-0.6-0.5-1.6-0.8-3-0.8h-7
		v-0.9h7.1c1.4,0,2.4-0.2,2.9-0.7c0.5-0.5,0.8-1.3,0.8-2.4c0-0.1,0.1-0.1,0.3-0.1s0.3,0,0.3,0.1l0,3.6c0,0.9,0,1.5,0,1.9l0,2.1
		c0,0.1-0.1,0.1-0.3,0.1c-0.2,0-0.3,0-0.3-0.1C105.5,182,105.2,181,104.6,180.5"/>
	<path style="clip-path:url(#SVGID_00000105409347310799732130000008560424221564923561_);fill:#18401D;" d="M130.1,167.2
		c1.3,1.1,1.9,2.6,1.9,4.4c0,1.6-0.5,3-1.4,4.3c-0.9,1.3-2.2,2.3-3.8,3.1c-1.6,0.8-3.3,1.1-5.1,1.1c-0.1,0-0.8,0-1.9-0.1v10.3
		c0,0.9,0.1,1.6,0.3,2c0.2,0.4,0.6,0.7,1.1,0.9c0.5,0.2,1.4,0.2,2.6,0.2c0.1,0,0.1,0.1,0.1,0.3c0,0.2,0,0.3-0.1,0.3
		c-0.9,0-1.6,0-2.2,0l-3.1,0l-3,0c-0.5,0-1.3,0-2.3,0c-0.1,0-0.1-0.1-0.1-0.3c0-0.2,0-0.3,0.1-0.3c1.2,0,2.1-0.1,2.6-0.2
		c0.6-0.2,0.9-0.4,1.2-0.9c0.2-0.4,0.3-1.1,0.3-2v-20.9c0-0.9-0.1-1.6-0.3-2c-0.2-0.4-0.6-0.7-1.1-0.9c-0.6-0.2-1.4-0.3-2.6-0.3
		c-0.1,0-0.1-0.1-0.1-0.3c0-0.2,0-0.3,0.1-0.3l2.2,0c1.2,0.1,2.2,0.1,3,0.1c0.7,0,1.3,0,1.9,0c0.6,0,1.1-0.1,1.5-0.1
		c1.1-0.1,2.1-0.1,2.9-0.1C127.1,165.5,128.8,166.1,130.1,167.2 M127.7,167.7c-1.1-1.1-2.8-1.6-4.9-1.6c-1.2,0-1.9,0.2-2.4,0.6
		c-0.5,0.4-0.7,1.3-0.7,2.7v9.5c0.9,0.1,1.8,0.1,2.7,0.1c2.5,0,4.3-0.5,5.4-1.6c1.1-1,1.6-2.6,1.6-4.7
		C129.4,170.5,128.9,168.8,127.7,167.7 M132.2,190.1c-2.2-2.6-4.8-6.1-7.9-10.7l2.2-0.7c2.7,3.8,4.9,6.7,6.6,8.8
		c1.8,2.1,3.4,3.6,4.7,4.5c1.4,0.9,2.7,1.4,4,1.4c0.1,0,0.1,0.1,0.1,0.3c0,0.2,0,0.3-0.1,0.3h-5.2
		C135.8,193.9,134.3,192.7,132.2,190.1"/>
	<path style="clip-path:url(#SVGID_00000105409347310799732130000008560424221564923561_);fill:#18401D;" d="M150.2,192.3
		c0.2,0.4,0.6,0.7,1.1,0.9c0.5,0.2,1.4,0.2,2.6,0.2c0.1,0,0.1,0.1,0.1,0.3c0,0.2,0,0.3-0.1,0.3c-0.9,0-1.6,0-2.1,0l-3.2,0l-3,0
		c-0.5,0-1.3,0-2.2,0c-0.1,0-0.1-0.1-0.1-0.3c0-0.2,0-0.3,0.1-0.3c1.2,0,2-0.1,2.6-0.2s0.9-0.4,1.2-0.9c0.2-0.4,0.3-1.1,0.3-2v-20.9
		c0-0.9-0.1-1.6-0.3-2c-0.2-0.4-0.6-0.7-1.2-0.9c-0.6-0.2-1.4-0.3-2.6-0.3c-0.1,0-0.1-0.1-0.1-0.3c0-0.2,0-0.3,0.1-0.3l2.2,0
		c1.3,0.1,2.3,0.1,3,0.1c0.8,0,1.9,0,3.2-0.1l2.1,0c0.1,0,0.1,0.1,0.1,0.3c0,0.2,0,0.3-0.1,0.3c-1.2,0-2,0.1-2.6,0.3
		c-0.6,0.2-0.9,0.5-1.1,0.9c-0.2,0.4-0.3,1.1-0.3,2v20.8C150,191.2,150.1,191.9,150.2,192.3"/>
	<path style="clip-path:url(#SVGID_00000105409347310799732130000008560424221564923561_);fill:#18401D;" d="M179.3,165.6
		c1.3,0.3,2.6,0.8,4,1.5c0.2,0.1,0.3,0.2,0.3,0.3c0,0.1,0.1,0.3,0.1,0.7l0.5,5.2c0,0.1-0.1,0.1-0.2,0.2c-0.2,0-0.3,0-0.3-0.1
		c-0.7-2.5-1.8-4.4-3.3-5.6c-1.5-1.3-3.6-1.9-6.1-1.9c-2.6,0-5,0.6-7,1.7c-2,1.1-3.6,2.7-4.7,4.8c-1.1,2.1-1.7,4.5-1.7,7.2
		c0,2.6,0.6,5,1.8,7.2c1.2,2.2,2.9,4,4.9,5.3c2.1,1.3,4.3,2,6.6,2c5,0,8.2-2.5,9.6-7.4c0-0.1,0.1-0.1,0.2-0.1c0.2,0,0.3,0,0.3,0.1
		l-0.4,4.8c0,0.4-0.1,0.6-0.1,0.7c-0.1,0.1-0.2,0.2-0.4,0.3c-1.6,0.8-3,1.4-4.4,1.7c-1.4,0.3-3,0.5-4.9,0.5c-3.1,0-5.9-0.6-8.4-1.9
		c-2.5-1.3-4.4-3-5.8-5.3c-1.4-2.3-2.1-4.9-2.1-7.8c0-2.8,0.7-5.3,2.1-7.5c1.4-2.2,3.3-3.9,5.8-5c2.5-1.2,5.2-1.8,8.3-1.8
		C176.4,165.2,178,165.3,179.3,165.6"/>
	<path style="clip-path:url(#SVGID_00000105409347310799732130000008560424221564923561_);fill:#18401D;" d="M218.5,193.7
		c0,0.2-0.1,0.3-0.2,0.3c-0.5,0-1.4,0-2.6-0.1c-1.1-0.1-2-0.1-2.5-0.1c-0.6,0-1.5,0-2.5,0.1c-1,0.1-1.7,0.1-2.2,0.1
		c-0.1,0-0.2-0.1-0.2-0.3c0-0.2,0.1-0.3,0.2-0.3c1.2,0,2.1-0.1,2.7-0.3c0.5-0.2,0.8-0.6,0.8-1.2c0-0.4-0.2-1-0.5-1.8l-10.2-22
		l0.9-0.8l-8.7,21c-0.4,1-0.6,1.9-0.6,2.5c0,0.9,0.4,1.5,1.1,1.9c0.7,0.4,1.9,0.6,3.4,0.6c0.1,0,0.2,0.1,0.2,0.3
		c0,0.2-0.1,0.3-0.2,0.3c-0.5,0-1.3,0-2.4-0.1c-1.1-0.1-2.1-0.1-3-0.1c-0.8,0-1.6,0-2.7,0.1c-0.9,0.1-1.6,0.1-2.2,0.1
		c-0.2,0-0.2-0.1-0.2-0.3c0-0.2,0.1-0.3,0.2-0.3c0.8,0,1.6-0.1,2.2-0.5c0.6-0.3,1.1-0.8,1.7-1.6c0.5-0.8,1.1-1.9,1.7-3.3l9.5-22.7
		c0.1-0.1,0.2-0.1,0.3-0.1c0.1,0,0.2,0,0.3,0.1l10.5,22.5c0.7,1.5,1.3,2.7,1.9,3.5c0.5,0.8,1.1,1.4,1.6,1.7c0.5,0.3,1.1,0.5,1.8,0.5
		C218.4,193.4,218.5,193.5,218.5,193.7 M196.4,180.2h11.7l0.3,0.8h-12.4L196.4,180.2z"/>
	<path style="clip-path:url(#SVGID_00000105409347310799732130000008560424221564923561_);fill:#18401D;" d="M223.6,166.7l1,0.1
		v22.4c0,1.5,0.3,2.6,0.8,3.2c0.5,0.6,1.4,0.9,2.7,0.9c0.1,0,0.1,0.1,0.1,0.3c0,0.2,0,0.3-0.1,0.3c-0.7,0-1.3,0-1.7,0l-2.2,0l-2.2,0
		c-0.4,0-1,0-1.8,0c-0.1,0-0.1-0.1-0.1-0.3c0-0.2,0-0.3,0.1-0.3c1.3,0,2.2-0.3,2.7-0.9c0.5-0.6,0.7-1.7,0.7-3.3V166.7z M246.1,194.6
		c-0.2,0-0.3,0-0.3,0l-20.4-25.1c-1-1.2-1.8-2-2.6-2.5c-0.8-0.5-1.6-0.7-2.4-0.7c-0.1,0-0.1-0.1-0.1-0.3c0-0.2,0-0.3,0.1-0.3l1.6,0
		c0.3,0,0.8,0,1.4,0c0.5,0,0.9,0,1.3,0c0.3,0,0.6,0,0.8,0c0.2,0,0.4,0.1,0.5,0.2c0.1,0.1,0.3,0.3,0.5,0.7c0.3,0.5,0.7,1.1,1.1,1.5
		l18.5,23l0.4,3.4C246.4,194.5,246.3,194.5,246.1,194.6 M246.4,194.4l-1-1.4v-22.6c0-1.5-0.2-2.6-0.7-3.3c-0.5-0.6-1.4-1-2.6-1
		c-0.1,0-0.1-0.1-0.1-0.3c0-0.2,0-0.3,0.1-0.3l1.7,0c0.9,0.1,1.6,0.1,2.2,0.1c0.5,0,1.3,0,2.2-0.1l1.8,0c0.1,0,0.1,0.1,0.1,0.3
		c0,0.2,0,0.3-0.1,0.3c-1.3,0-2.2,0.3-2.7,1c-0.5,0.6-0.8,1.7-0.8,3.3V194.4z"/>
	<path style="clip-path:url(#SVGID_00000105409347310799732130000008560424221564923561_);fill:#18401D;" d="M271,192.5
		c-2.4-1.3-4.3-3.2-5.6-5.4c-1.3-2.3-1.9-4.8-1.9-7.5c0-2.9,0.7-5.5,2.2-7.6c1.5-2.2,3.5-3.8,6-5c2.5-1.2,5.4-1.7,8.6-1.7
		c1.7,0,3.2,0.2,4.6,0.5c1.4,0.3,2.6,0.8,3.5,1.4c0.2,0.1,0.3,0.2,0.4,0.3c0,0.1,0.1,0.3,0.1,0.7l0.5,5.1c0,0.1-0.1,0.2-0.3,0.2
		c-0.2,0-0.3,0-0.3-0.1c-0.7-2.5-1.7-4.4-3.1-5.6c-1.4-1.2-3.4-1.8-6-1.8c-2.5,0-4.7,0.5-6.7,1.6c-2,1.1-3.6,2.6-4.7,4.6
		c-1.1,2-1.7,4.3-1.7,6.9c0,2.5,0.5,4.9,1.6,7.1c1,2.3,2.6,4.1,4.8,5.6c2.2,1.4,4.8,2.2,8,2.2c2.2,0,3.8-0.4,4.7-1.3
		c0.9-0.9,1.4-2.3,1.4-4.3c0-1.6-0.1-2.7-0.3-3.3c-0.2-0.6-0.7-1-1.4-1.2s-1.9-0.3-3.6-0.3c-0.2,0-0.3-0.1-0.3-0.4
		c0-0.1,0-0.2,0.1-0.3c0-0.1,0.1-0.1,0.2-0.1c2.3,0.2,4.2,0.2,5.6,0.2c1.4,0,2.8,0,4.3-0.1c0.1,0,0.1,0,0.2,0.1
		c0,0.1,0.1,0.1,0.1,0.2c0,0.2-0.1,0.3-0.2,0.3c-0.8,0-1.3,0.1-1.7,0.3c-0.3,0.2-0.5,0.7-0.6,1.4c-0.1,0.7-0.1,1.9-0.1,3.6
		c0,1.4,0,2.3,0.2,2.9c0.1,0.6,0.2,0.9,0.2,1.1c0,0.2,0,0.3-0.1,0.4c-0.1,0.1-0.2,0.1-0.4,0.2c-3.6,0.8-6.8,1.2-9.3,1.2
		C276.3,194.5,273.5,193.8,271,192.5"/>
	<path style="clip-path:url(#SVGID_00000105409347310799732130000008560424221564923561_);fill:#18401D;" d="M312,167.2
		c1.3,1.1,1.9,2.6,1.9,4.4c0,1.6-0.5,3-1.4,4.3c-0.9,1.3-2.2,2.3-3.8,3.1c-1.6,0.8-3.3,1.1-5.1,1.1c-0.1,0-0.8,0-1.9-0.1v10.3
		c0,0.9,0.1,1.6,0.3,2c0.2,0.4,0.6,0.7,1.1,0.9c0.5,0.2,1.4,0.2,2.6,0.2c0.1,0,0.1,0.1,0.1,0.3c0,0.2,0,0.3-0.1,0.3
		c-0.9,0-1.6,0-2.2,0l-3.1,0l-3,0c-0.5,0-1.3,0-2.3,0c-0.1,0-0.1-0.1-0.1-0.3c0-0.2,0-0.3,0.1-0.3c1.2,0,2.1-0.1,2.6-0.2
		c0.6-0.2,0.9-0.4,1.2-0.9c0.2-0.4,0.3-1.1,0.3-2v-20.9c0-0.9-0.1-1.6-0.3-2c-0.2-0.4-0.6-0.7-1.1-0.9c-0.6-0.2-1.4-0.3-2.6-0.3
		c-0.1,0-0.1-0.1-0.1-0.3c0-0.2,0-0.3,0.1-0.3l2.2,0c1.2,0.1,2.2,0.1,3,0.1c0.7,0,1.3,0,1.9,0c0.6,0,1.1-0.1,1.5-0.1
		c1.1-0.1,2.1-0.1,2.9-0.1C309,165.5,310.7,166.1,312,167.2 M309.6,167.7c-1.1-1.1-2.8-1.6-4.9-1.6c-1.2,0-1.9,0.2-2.4,0.6
		c-0.5,0.4-0.7,1.3-0.7,2.7v9.5c0.9,0.1,1.8,0.1,2.7,0.1c2.5,0,4.3-0.5,5.4-1.6c1.1-1,1.6-2.6,1.6-4.7
		C311.3,170.5,310.7,168.8,309.6,167.7 M314,190.1c-2.2-2.6-4.8-6.1-7.9-10.7l2.2-0.7c2.7,3.8,4.9,6.7,6.6,8.8
		c1.8,2.1,3.4,3.6,4.7,4.5s2.7,1.4,4,1.4c0.1,0,0.1,0.1,0.1,0.3c0,0.2,0,0.3-0.1,0.3h-5.2C317.7,193.9,316.2,192.7,314,190.1"/>
	<path style="clip-path:url(#SVGID_00000105409347310799732130000008560424221564923561_);fill:#18401D;" d="M330.1,192.5
		c-2.2-1.3-3.9-3.1-5.1-5.3c-1.2-2.2-1.8-4.7-1.8-7.3c0-3.1,0.8-5.8,2.4-8c1.6-2.2,3.6-3.9,6-5c2.5-1.1,5-1.7,7.5-1.7
		c2.9,0,5.4,0.7,7.6,2c2.2,1.3,3.8,3.1,5,5.3c1.2,2.2,1.7,4.5,1.7,7c0,2.7-0.7,5.3-2.2,7.6c-1.4,2.3-3.4,4.1-5.8,5.4
		c-2.4,1.3-5.1,2-7.9,2C334.8,194.5,332.3,193.8,330.1,192.5 M345,192.1c1.7-1,3.1-2.5,4.1-4.4c1-1.9,1.5-4.2,1.5-6.9
		c0-2.8-0.5-5.4-1.6-7.6c-1.1-2.2-2.7-3.9-4.7-5.2c-2-1.2-4.3-1.9-7-1.9c-3.5,0-6.2,1.1-8.2,3.3c-2,2.2-2.9,5.1-2.9,8.9
		c0,2.8,0.5,5.4,1.6,7.7c1.1,2.3,2.6,4.2,4.6,5.5c2,1.4,4.3,2,6.8,2C341.3,193.6,343.3,193.1,345,192.1"/>
	<path style="clip-path:url(#SVGID_00000105409347310799732130000008560424221564923561_);fill:#18401D;" d="M370,194.1
		c-0.2,0-0.4-0.1-0.5-0.2l-11.2-24.5c-0.5-1.2-1.1-2-1.6-2.5c-0.6-0.5-1.4-0.7-2.3-0.7c-0.1,0-0.1-0.1-0.1-0.3c0-0.2,0-0.3,0.1-0.3
		l1.9,0c0.8,0.1,1.5,0.1,1.9,0.1c0.9,0,1.9,0,3.1-0.1l1.9,0c0.1,0,0.1,0.1,0.1,0.3c0,0.2,0,0.3-0.1,0.3c-0.9,0-1.6,0.1-2.1,0.3
		c-0.5,0.2-0.7,0.6-0.7,1.1c0,0.3,0.1,0.7,0.4,1.3l10.4,22.4l-1.5,1.9l6.1-15l0.6,0.9l-5.9,14.7C370.4,194,370.3,194.1,370,194.1
		 M397,166c0,0.2,0,0.3-0.1,0.3c-1,0-1.9,0.2-2.6,0.7c-0.7,0.4-1.3,1.3-1.8,2.5l-10,24.6c0,0.1-0.2,0.2-0.5,0.2
		c-0.2,0-0.4-0.1-0.5-0.2l-11.2-24.5c-0.5-1.2-1.1-2-1.6-2.5c-0.6-0.5-1.4-0.7-2.3-0.7c-0.1,0-0.1-0.1-0.1-0.3c0-0.2,0-0.3,0.1-0.3
		l1.9,0c0.8,0.1,1.5,0.1,1.9,0.1c0.6,0,1.4,0,2.2-0.1l1.3,0c0.1,0,0.1,0.1,0.1,0.3c0,0.2,0,0.3-0.1,0.3c-0.6,0-1,0-1.3,0.1
		c-0.2,0.1-0.4,0.3-0.4,0.5c0,0.3,0.2,1,0.7,2.1l10.4,22.4l-1.5,1.9l9.9-24.3c0.2-0.5,0.3-0.9,0.3-1.3c0-0.5-0.3-0.9-0.8-1.2
		c-0.6-0.2-1.5-0.4-2.8-0.4c-0.1,0-0.1-0.1-0.1-0.3c0-0.2,0-0.3,0.1-0.3l1.8,0c1,0.1,1.9,0.1,2.7,0.1c0.6,0,1.3,0,2.1-0.1l1.9,0
		C397,165.7,397,165.8,397,166 M380.1,167.5c0-0.5-0.2-0.8-0.5-1c-0.3-0.2-0.9-0.3-1.6-0.3c-0.1,0-0.1-0.1-0.1-0.3
		c0-0.2,0-0.3,0.1-0.3l1.3,0c0.6,0.1,1.2,0.1,1.7,0.1c0.6,0,1.3,0,2.1-0.1l1.9,0c0.1,0,0.1,0.1,0.1,0.3c0,0.2,0,0.3-0.1,0.3
		c-1,0-1.9,0.2-2.6,0.7c-0.7,0.4-1.3,1.3-1.8,2.5l-4,9.9l-0.6-0.9l3.7-9.3C380,168.4,380.1,167.9,380.1,167.5"/>
	<path style="clip-path:url(#SVGID_00000105409347310799732130000008560424221564923561_);fill:#18401D;" d="M401.9,166.7l1,0.1
		v22.4c0,1.5,0.3,2.6,0.8,3.2c0.5,0.6,1.4,0.9,2.7,0.9c0.1,0,0.1,0.1,0.1,0.3c0,0.2,0,0.3-0.1,0.3c-0.7,0-1.3,0-1.7,0l-2.2,0l-2.2,0
		c-0.4,0-1,0-1.8,0c-0.1,0-0.1-0.1-0.1-0.3c0-0.2,0-0.3,0.1-0.3c1.3,0,2.2-0.3,2.7-0.9c0.5-0.6,0.7-1.7,0.7-3.3V166.7z M424.4,194.6
		c-0.2,0-0.3,0-0.3,0l-20.4-25.1c-1-1.2-1.8-2-2.6-2.5c-0.8-0.5-1.6-0.7-2.4-0.7c-0.1,0-0.1-0.1-0.1-0.3c0-0.2,0-0.3,0.1-0.3l1.6,0
		c0.3,0,0.8,0,1.4,0c0.5,0,0.9,0,1.3,0c0.3,0,0.6,0,0.8,0c0.2,0,0.4,0.1,0.5,0.2c0.1,0.1,0.3,0.3,0.5,0.7c0.3,0.5,0.7,1.1,1.1,1.5
		l18.5,23l0.4,3.4C424.7,194.5,424.6,194.5,424.4,194.6 M424.7,194.4l-1-1.4v-22.6c0-1.5-0.2-2.6-0.7-3.3c-0.5-0.6-1.4-1-2.6-1
		c-0.1,0-0.1-0.1-0.1-0.3c0-0.2,0-0.3,0.1-0.3l1.7,0c0.9,0.1,1.6,0.1,2.2,0.1c0.5,0,1.3,0,2.2-0.1l1.8,0c0.1,0,0.1,0.1,0.1,0.3
		c0,0.2,0,0.3-0.1,0.3c-1.3,0-2.2,0.3-2.7,1c-0.5,0.6-0.8,1.7-0.8,3.3V194.4z"/>
	<path style="clip-path:url(#SVGID_00000105409347310799732130000008560424221564923561_);fill:#18401D;" d="M450.1,194
		c-0.4,0-0.9-0.1-1.6-0.1c-0.6,0-1.3,0-2.1,0l-3,0c-0.5,0-1.3,0-2.3,0c-0.1,0-0.1-0.1-0.1-0.3c0-0.2,0-0.3,0.1-0.3
		c1.2,0,2-0.1,2.6-0.2c0.6-0.2,0.9-0.4,1.2-0.9c0.2-0.4,0.3-1.1,0.3-2v-20.9c0-0.9-0.1-1.6-0.3-2c-0.2-0.4-0.6-0.7-1.1-0.9
		c-0.6-0.2-1.4-0.2-2.6-0.2c-0.1,0-0.1-0.1-0.1-0.3c0-0.2,0-0.3,0.1-0.3l2.2,0c1.3,0.1,2.3,0.1,3,0.1c1.1,0,2.1,0,3.2-0.1
		c1.3-0.1,2.2-0.1,2.7-0.1c3.2,0,6,0.6,8.4,1.8c2.4,1.2,4.3,2.9,5.7,4.9c1.3,2.1,2,4.4,2,7c0,2.9-0.7,5.5-2.1,7.8
		c-1.4,2.2-3.3,4-5.6,5.2c-2.4,1.2-4.9,1.8-7.7,1.8C452.1,194.1,451.2,194.1,450.1,194 M459.3,192c2-1,3.5-2.5,4.6-4.5
		c1.1-2,1.7-4.4,1.7-7.1c0-2.7-0.5-5.1-1.6-7.2c-1-2.1-2.5-3.8-4.5-5.1c-1.9-1.3-4.2-1.9-6.7-1.9c-1.3,0-2.3,0.1-3.1,0.2
		c-0.7,0.2-1.2,0.5-1.6,0.9c-0.3,0.5-0.5,1.2-0.5,2.1v20.3c0,0.9,0.1,1.6,0.4,2.2c0.3,0.5,0.8,0.9,1.4,1.2c0.7,0.3,1.7,0.4,3,0.4
		C455.1,193.5,457.4,193,459.3,192"/>
	<path style="clip-path:url(#SVGID_00000105409347310799732130000008560424221564923561_);fill:#18401D;" d="M479.5,192.3
		c0.2,0.4,0.6,0.7,1.1,0.9c0.5,0.2,1.4,0.2,2.6,0.2c0.1,0,0.1,0.1,0.1,0.3c0,0.2,0,0.3-0.1,0.3c-0.9,0-1.6,0-2.1,0l-3.2,0l-3,0
		c-0.5,0-1.3,0-2.2,0c-0.1,0-0.1-0.1-0.1-0.3c0-0.2,0-0.3,0.1-0.3c1.2,0,2-0.1,2.6-0.2s0.9-0.4,1.2-0.9c0.2-0.4,0.3-1.1,0.3-2v-20.9
		c0-0.9-0.1-1.6-0.3-2c-0.2-0.4-0.6-0.7-1.2-0.9c-0.6-0.2-1.4-0.3-2.6-0.3c-0.1,0-0.1-0.1-0.1-0.3c0-0.2,0-0.3,0.1-0.3l2.2,0
		c1.3,0.1,2.3,0.1,3,0.1c0.8,0,1.9,0,3.2-0.1l2.1,0c0.1,0,0.1,0.1,0.1,0.3c0,0.2,0,0.3-0.1,0.3c-1.2,0-2,0.1-2.6,0.3
		c-0.6,0.2-0.9,0.5-1.1,0.9c-0.2,0.4-0.3,1.1-0.3,2v20.8C479.2,191.2,479.3,191.9,479.5,192.3"/>
	<path style="clip-path:url(#SVGID_00000105409347310799732130000008560424221564923561_);fill:#18401D;" d="M516.8,193.7
		c0,0.2-0.1,0.3-0.2,0.3c-0.5,0-1.4,0-2.6-0.1c-1.2-0.1-2-0.1-2.5-0.1c-0.6,0-1.5,0-2.5,0.1c-1,0.1-1.7,0.1-2.2,0.1
		c-0.1,0-0.2-0.1-0.2-0.3c0-0.2,0.1-0.3,0.2-0.3c1.2,0,2.1-0.1,2.7-0.3c0.5-0.2,0.8-0.6,0.8-1.2c0-0.4-0.2-1-0.5-1.8l-10.2-22
		l0.9-0.8l-8.7,21c-0.4,1-0.6,1.9-0.6,2.5c0,0.9,0.4,1.5,1.1,1.9c0.7,0.4,1.9,0.6,3.4,0.6c0.1,0,0.2,0.1,0.2,0.3
		c0,0.2-0.1,0.3-0.2,0.3c-0.5,0-1.3,0-2.4-0.1c-1.1-0.1-2.1-0.1-3-0.1c-0.8,0-1.6,0-2.7,0.1c-0.9,0.1-1.6,0.1-2.2,0.1
		c-0.2,0-0.2-0.1-0.2-0.3c0-0.2,0.1-0.3,0.2-0.3c0.8,0,1.6-0.1,2.2-0.5c0.6-0.3,1.1-0.8,1.7-1.6c0.5-0.8,1.1-1.9,1.7-3.3l9.5-22.7
		c0.1-0.1,0.2-0.1,0.3-0.1c0.1,0,0.2,0,0.3,0.1l10.5,22.5c0.7,1.5,1.3,2.7,1.9,3.5c0.5,0.8,1.1,1.4,1.6,1.7c0.5,0.3,1.1,0.5,1.8,0.5
		C516.8,193.4,516.8,193.5,516.8,193.7 M494.7,180.2h11.7l0.3,0.8h-12.4L494.7,180.2z"/>
	<path style="clip-path:url(#SVGID_00000105409347310799732130000008560424221564923561_);fill:#18401D;" d="M522.5,166.7l1,0.1
		l-0.4,22.4c0,1.6,0.2,2.6,0.8,3.3c0.5,0.6,1.5,0.9,3,0.9c0.1,0,0.1,0.1,0.1,0.3c0,0.2,0,0.3-0.1,0.3c-0.8,0-1.5,0-1.9,0l-2.4,0
		l-2.2,0c-0.4,0-1,0-1.8,0c-0.1,0-0.1-0.1-0.1-0.3c0-0.2,0-0.3,0.1-0.3c1.3,0,2.2-0.3,2.7-0.9c0.5-0.6,0.8-1.7,0.8-3.2L522.5,166.7z
		 M553.3,193.7c0,0.2,0,0.3-0.1,0.3c-0.9,0-1.7,0-2.2,0l-3,0l-2.8,0c-0.5,0-1.1,0-1.9,0c-0.1,0-0.1-0.1-0.1-0.3c0-0.2,0-0.3,0.1-0.3
		c1.1,0,1.8-0.1,2.3-0.3c0.5-0.2,0.8-0.5,1-0.9c0.2-0.4,0.2-1.1,0.2-2l-0.8-22.3l1.3-1.7l-11.8,27.3c-0.1,0.1-0.2,0.2-0.4,0.2
		c-0.2,0-0.3-0.1-0.4-0.2l-11-24.2c-0.5-1.1-1.1-1.9-1.9-2.4c-0.8-0.5-1.7-0.8-2.8-0.8c-0.1,0-0.1-0.1-0.1-0.3c0-0.2,0-0.3,0.1-0.3
		l1.5,0c0.3,0,0.7,0,1.2,0c0.5,0,0.9,0,1.2,0c0.3,0,0.6,0,0.8,0c0.4,0,0.7,0.1,1,0.4c0.2,0.3,0.6,0.9,1.1,1.9l10.4,22.4l-1.2,1.9
		l11.1-25.5c0.2-0.3,0.4-0.6,0.6-0.8c0.3-0.2,0.5-0.3,0.7-0.3c0.1,0,0.3,0,0.6,0c0.3,0,0.6,0,1.1,0l2,0c0.3,0,0.8,0,1.4,0
		c0.1,0,0.1,0.1,0.1,0.3c0,0.2,0,0.3-0.1,0.3c-1.6,0-2.7,0.2-3.3,0.6c-0.6,0.4-1,1.2-0.9,2.4l0.9,21c0,0.9,0.1,1.6,0.3,2
		c0.2,0.4,0.6,0.7,1.1,0.9s1.4,0.2,2.6,0.2C553.2,193.4,553.3,193.5,553.3,193.7"/>
	<path style="clip-path:url(#SVGID_00000105409347310799732130000008560424221564923561_);fill:#18401D;" d="M563.1,192.5
		c-2.2-1.3-3.9-3.1-5.1-5.3c-1.2-2.2-1.8-4.7-1.8-7.3c0-3.1,0.8-5.8,2.4-8c1.6-2.2,3.6-3.9,6-5c2.5-1.1,5-1.7,7.5-1.7
		c2.9,0,5.4,0.7,7.6,2c2.2,1.3,3.8,3.1,5,5.3c1.2,2.2,1.7,4.5,1.7,7c0,2.7-0.7,5.3-2.2,7.6c-1.4,2.3-3.4,4.1-5.8,5.4
		c-2.4,1.3-5.1,2-7.9,2C567.7,194.5,565.3,193.8,563.1,192.5 M578,192.1c1.7-1,3.1-2.5,4.1-4.4c1-1.9,1.5-4.2,1.5-6.9
		c0-2.8-0.5-5.4-1.6-7.6c-1.1-2.2-2.7-3.9-4.7-5.2c-2-1.2-4.3-1.9-7-1.9c-3.5,0-6.2,1.1-8.2,3.3c-2,2.2-2.9,5.1-2.9,8.9
		c0,2.8,0.5,5.4,1.6,7.7c1.1,2.3,2.6,4.2,4.6,5.5c2,1.4,4.3,2,6.8,2C574.3,193.6,576.2,193.1,578,192.1"/>
	<path style="clip-path:url(#SVGID_00000105409347310799732130000008560424221564923561_);fill:#18401D;" d="M593.8,166.7l1,0.1
		v22.4c0,1.5,0.3,2.6,0.8,3.2c0.5,0.6,1.4,0.9,2.7,0.9c0.1,0,0.1,0.1,0.1,0.3c0,0.2,0,0.3-0.1,0.3c-0.7,0-1.3,0-1.7,0l-2.2,0l-2.2,0
		c-0.4,0-1,0-1.8,0c-0.1,0-0.1-0.1-0.1-0.3c0-0.2,0-0.3,0.1-0.3c1.3,0,2.2-0.3,2.7-0.9c0.5-0.6,0.7-1.7,0.7-3.3V166.7z M616.3,194.6
		c-0.2,0-0.3,0-0.3,0l-20.4-25.1c-1-1.2-1.8-2-2.6-2.5c-0.8-0.5-1.6-0.7-2.4-0.7c-0.1,0-0.1-0.1-0.1-0.3c0-0.2,0-0.3,0.1-0.3l1.6,0
		c0.3,0,0.8,0,1.4,0c0.5,0,0.9,0,1.3,0c0.3,0,0.6,0,0.8,0c0.2,0,0.4,0.1,0.5,0.2c0.1,0.1,0.3,0.3,0.5,0.7c0.3,0.5,0.7,1.1,1.1,1.5
		l18.5,23l0.4,3.4C616.5,194.5,616.5,194.5,616.3,194.6 M616.5,194.4l-1-1.4v-22.6c0-1.5-0.2-2.6-0.7-3.3c-0.5-0.6-1.4-1-2.6-1
		c-0.1,0-0.1-0.1-0.1-0.3c0-0.2,0-0.3,0.1-0.3l1.7,0c0.9,0.1,1.6,0.1,2.2,0.1c0.5,0,1.3,0,2.2-0.1l1.8,0c0.1,0,0.1,0.1,0.1,0.3
		c0,0.2,0,0.3-0.1,0.3c-1.3,0-2.2,0.3-2.7,1c-0.5,0.6-0.8,1.7-0.8,3.3V194.4z"/>
	<path style="clip-path:url(#SVGID_00000105409347310799732130000008560424221564923561_);fill:#18401D;" d="M631.6,194
		c-0.4,0-0.9-0.1-1.6-0.1c-0.6,0-1.3,0-2.1,0l-3,0c-0.5,0-1.3,0-2.3,0c-0.1,0-0.1-0.1-0.1-0.3c0-0.2,0-0.3,0.1-0.3
		c1.2,0,2-0.1,2.6-0.2c0.6-0.2,0.9-0.4,1.2-0.9c0.2-0.4,0.3-1.1,0.3-2v-20.9c0-0.9-0.1-1.6-0.3-2c-0.2-0.4-0.6-0.7-1.1-0.9
		c-0.6-0.2-1.4-0.2-2.6-0.2c-0.1,0-0.1-0.1-0.1-0.3c0-0.2,0-0.3,0.1-0.3l2.2,0c1.3,0.1,2.3,0.1,3,0.1c1.1,0,2.1,0,3.2-0.1
		c1.3-0.1,2.2-0.1,2.7-0.1c3.2,0,6,0.6,8.4,1.8c2.4,1.2,4.3,2.9,5.7,4.9c1.3,2.1,2,4.4,2,7c0,2.9-0.7,5.5-2.1,7.8
		c-1.4,2.2-3.3,4-5.6,5.2c-2.4,1.2-4.9,1.8-7.7,1.8C633.6,194.1,632.6,194.1,631.6,194 M640.8,192c2-1,3.5-2.5,4.6-4.5
		c1.1-2,1.7-4.4,1.7-7.1c0-2.7-0.5-5.1-1.6-7.2c-1-2.1-2.5-3.8-4.5-5.1c-1.9-1.3-4.2-1.9-6.7-1.9c-1.3,0-2.3,0.1-3.1,0.2
		c-0.7,0.2-1.2,0.5-1.6,0.9c-0.3,0.5-0.5,1.2-0.5,2.1v20.3c0,0.9,0.1,1.6,0.4,2.2c0.3,0.5,0.8,0.9,1.4,1.2c0.7,0.3,1.7,0.4,3,0.4
		C636.6,193.5,638.8,193,640.8,192"/>
	<path style="clip-path:url(#SVGID_00000105409347310799732130000008560424221564923561_);fill:#18401D;" d="M659.1,174.3
		c0.6,0.9,1.3,1.6,2.1,2.2c0.8,0.6,2,1.3,3.5,2.2c1.6,0.9,2.8,1.7,3.6,2.3c0.9,0.6,1.6,1.4,2.2,2.4c0.6,1,0.9,2.1,0.9,3.5
		c0,1.4-0.4,2.7-1,3.9c-0.7,1.2-1.7,2.1-3.1,2.8c-1.4,0.7-3.1,1-5,1c-1.1,0-2.1-0.1-3-0.3c-1-0.2-2-0.6-3.1-1.2
		c-0.2-0.1-0.2-0.2-0.3-0.3c0-0.1-0.1-0.3-0.1-0.5l-0.7-5.9v0c0-0.1,0.1-0.2,0.2-0.2c0.2,0,0.2,0,0.3,0.2c0.3,2.1,1.1,3.9,2.4,5.4
		c1.3,1.5,3.1,2.3,5.3,2.3c1.6,0,2.9-0.4,4.1-1.3c1.1-0.9,1.6-2.2,1.6-4.1c0-1.4-0.3-2.5-0.9-3.5c-0.6-1-1.3-1.8-2.2-2.4
		c-0.9-0.6-2-1.4-3.5-2.3c-1.4-0.8-2.6-1.6-3.4-2.2c-0.8-0.6-1.5-1.4-2.1-2.4c-0.6-1-0.9-2.1-0.9-3.4c0-1.5,0.4-2.8,1.2-3.8
		c0.8-1.1,1.8-1.8,3-2.4c1.2-0.5,2.6-0.8,4-0.8c1.7,0,3.4,0.4,5.2,1.1c0.5,0.2,0.7,0.4,0.7,0.8l0.4,4.8c0,0.1-0.1,0.2-0.3,0.2
		s-0.3-0.1-0.3-0.2c-0.1-1.6-0.7-3-1.8-4.2c-1.1-1.2-2.6-1.9-4.5-1.9c-1.8,0-3.1,0.5-4,1.6c-0.8,1.1-1.3,2.3-1.3,3.8
		C658.2,172.4,658.5,173.4,659.1,174.3"/>
</g>
</svg>
