<?xml version="1.0" encoding="UTF-8"?>
<svg xmlns="http://www.w3.org/2000/svg" viewBox="0 0 1760.11 1789.48">
  <defs>
    <style>
      .cls-1 {
        opacity: .44;
      }

      .cls-2 {
        fill: #1f4739;
      }

      .cls-2, .cls-3 {
        stroke-width: 0px;
      }

      .cls-3 {
        fill: #043022;
      }
    </style>
  </defs>
  <g id="Layer_1" data-name="Layer 1">
    <path class="cls-2" d="m1289.22,29.84L554.54,1.72,0,612.36l27.89,644.94.21,4.9,439.09,494.78,3.93,4.43,789.62,28.07,471.32-499.42,28.06-705.09L1289.22,29.84Zm442.84,564.79l-.48,12.13-131.92,318.49-168.71-480.36,295.44,143.04,5.68,6.69Zm-32.22,689.27l-276.58,103.3,175.33-423.27,106.68,303.76-.43,10.92-4.99,5.29Zm-1644.56-32.71l-.36-8.26,105.07-251.34,153.21,373.67-252.49-107.95-5.43-6.12Zm-27.18-628.67l5.95-6.55,330.52-149.56-204.44,489.06L28.63,634.79l-.53-12.27Zm859.52,759.68l-548.7-111.34,37.79-676.15,386.46-142.68,647.82,95.59-7.04,844.57-516.33-9.99Zm-554.32-10.72l4.84-86.68,472.66,95.91-477.5-9.23Zm50.96-911.83l337.22-6.96-343.93,126.98,6.71-120.01Zm1026.85,74.01l-566.06-83.52,566.85-11.71-.79,95.23Zm-607.72-96.49h0s-392.13,8.1-392.13,8.1l527.46-238.68,451.24,218.47-586.58,12.11Zm-434.83,55.49l-5.99,107.26h0s-41.77,747.44-41.77,747.44l-153.27-373.8,201.03-480.89Zm518.16,903.34h0s487.7,9.43,487.7,9.43l-516.28,192.82-496.82-212.42,525.39,10.16Zm531.28-32.23l6.79-814.13h0l.66-78.69,166.28,473.42-173.72,419.39ZM955.13,199.19l314.76-142.43,6.12.23,6.91,8.15,123.88,352.72-451.67-218.67Zm-16.19-7.84L608.67,31.45l630.31,24.12-300.05,135.77ZM566.34,29.83l7.89.3,348.31,168.63-531.68,240.59L558.4,38.58l7.95-8.75Zm-193.27,416.24l-1.9.04-.12,2.21L57.43,590.23,530.64,69.15l-157.57,376.92Zm-220.49,527.45l-99.05,236.95-23.13-534.95,122.19,298Zm166.25,409.19l-.13,2.32,2.63.05,126.44,308.38-365.56-411.92,236.62,101.17Zm19.96,8.54l500.6,214.03-346.09,129.26-9.37-.33-8.39-9.46-136.74-333.51Zm519.01,221.91l342.72,146.53-671.16-23.86,328.45-122.67Zm391.4,148.26l-10.34-.37-362.3-154.9,521.77-194.87-141.83,342.41-7.3,7.73Zm166.17-355.17l2.27.04.02-2.23,260.67-97.36-395.18,418.74,132.22-319.2Zm191.13-461.44l123.47-298.09-23.22,583.52-100.25-285.43Zm-180.7-517.73l.02-2.74-2.11.04-115.82-329.77,396.37,467.28-278.47-134.82Z"/>
    <polygon class="cls-3" points="556.51 15.67 12.42 615.16 38.98 1257.54 477.61 1748.27 1254.3 1776.86 1720 1286.65 1746.55 592.18 1278.3 39.67 556.51 15.67"/>
  </g>
  <g id="Layer_2" data-name="Layer 2">
    <g class="cls-1">
      <path class="cls-2" d="m1289.22,29.84L554.54,1.72,0,612.36l27.89,644.94.21,4.9,439.09,494.78,3.93,4.43,789.62,28.07,471.32-499.42,28.06-705.09L1289.22,29.84Zm442.84,564.79l-.48,12.13-131.92,318.49-168.71-480.36,295.44,143.04,5.68,6.69Zm-32.22,689.27l-276.58,103.3,175.33-423.27,106.68,303.76-.43,10.92-4.99,5.29Zm-1644.56-32.71l-.36-8.26,105.07-251.34,153.21,373.67-252.49-107.95-5.43-6.12Zm-27.18-628.67l5.95-6.55,330.52-149.56-204.44,489.06L28.63,634.79l-.53-12.27Zm859.52,759.68l-548.7-111.34,37.79-676.15,386.46-142.68,647.82,95.59-7.04,844.57-516.33-9.99Zm-554.32-10.72l4.84-86.68,472.66,95.91-477.5-9.23Zm50.96-911.83l337.22-6.96-343.93,126.98,6.71-120.01Zm1026.85,74.01l-566.06-83.52,566.85-11.71-.79,95.23Zm-607.72-96.49h0s-392.13,8.1-392.13,8.1l527.46-238.68,451.24,218.47-586.58,12.11Zm-434.83,55.49l-5.99,107.26h0s-41.77,747.44-41.77,747.44l-153.27-373.8,201.03-480.89Zm518.16,903.34h0s487.7,9.43,487.7,9.43l-516.28,192.82-496.82-212.42,525.39,10.16Zm531.28-32.23l6.79-814.13h0l.66-78.69,166.28,473.42-173.72,419.39ZM955.13,199.19l314.76-142.43,6.12.23,6.91,8.15,123.88,352.72-451.67-218.67Zm-16.19-7.84L608.67,31.45l630.31,24.12-300.05,135.77ZM566.34,29.83l7.89.3,348.31,168.63-531.68,240.59L558.4,38.58l7.95-8.75Zm-193.27,416.24l-1.9.04-.12,2.21L57.43,590.23,530.64,69.15l-157.57,376.92Zm-220.49,527.45l-99.05,236.95-23.13-534.95,122.19,298Zm166.25,409.19l-.13,2.32,2.63.05,126.44,308.38-365.56-411.92,236.62,101.17Zm19.96,8.54l500.6,214.03-346.09,129.26-9.37-.33-8.39-9.46-136.74-333.51Zm519.01,221.91l342.72,146.53-671.16-23.86,328.45-122.67Zm391.4,148.26l-10.34-.37-362.3-154.9,521.77-194.87-141.83,342.41-7.3,7.73Zm166.17-355.17l2.27.04.02-2.23,260.67-97.36-395.18,418.74,132.22-319.2Zm191.13-461.44l123.47-298.09-23.22,583.52-100.25-285.43Zm-180.7-517.73l.02-2.74-2.11.04-115.82-329.77,396.37,467.28-278.47-134.82Z"/>
    </g>
  </g>
</svg>