<?xml version="1.0" encoding="UTF-8"?>
<svg xmlns="http://www.w3.org/2000/svg" viewBox="0 0 916.23 1378.82">
  <defs>
    <style>
      .cls-1 {
        isolation: isolate;
      }

      .cls-2 {
        fill: #ffa100;
      }

      .cls-2, .cls-3, .cls-4, .cls-5, .cls-6, .cls-7 {
        stroke-width: 0px;
      }

      .cls-3 {
        fill: #fff;
        mix-blend-mode: overlay;
        opacity: .38;
      }

      .cls-4 {
        fill: #f52b2b;
      }

      .cls-5 {
        fill: #d61616;
      }

      .cls-6 {
        fill: #ffecef;
      }

      .cls-7 {
        fill: #e62323;
      }
    </style>
  </defs>
  <g class="cls-1">
    <g id="Layer_1" data-name="Layer 1">
      <g>
        <g>
          <path class="cls-2" d="m400.56,289.84h115.12c27.1,0,49.1,22,49.1,49.1v172.47c0,27.1-22,49.1-49.1,49.1h-115.12c-27.1,0-49.1-22-49.1-49.1v-172.47c0-27.1,22-49.1,49.1-49.1Z"/>
          <path class="cls-7" d="m553.64,404.81c-.59,10.11-8.9,18.16-19.17,18.16s-18.57-8.04-19.17-18.16h-11.44c-.59,10.11-8.9,18.16-19.17,18.16s-18.58-8.04-19.17-18.16h-11.44c-.59,10.11-8.9,18.16-19.17,18.16s-18.57-8.04-19.17-18.16h-11.44c-.59,10.11-8.9,18.16-19.17,18.16s-18.58-8.04-19.17-18.16h-14.51v106.6c0,27,22.09,49.1,49.1,49.1h115.12c27,0,49.1-22.09,49.1-49.1v-106.6h-11.13Z"/>
          <circle class="cls-4" cx="458.12" cy="920.7" r="458.12"/>
          <path class="cls-2" d="m458.12,312.85c-35.56,0-64.49-28.93-64.49-64.48s28.93-64.49,64.49-64.49,64.48,28.93,64.48,64.49-28.93,64.48-64.48,64.48Zm0-85.34c-11.5,0-20.86,9.36-20.86,20.86s9.36,20.85,20.86,20.85,20.85-9.35,20.85-20.85-9.35-20.86-20.85-20.86Z"/>
        </g>
        <g>
          <path class="cls-5" d="m458.12,232.96c-3.02,0-5.45-2.44-5.45-5.45V5.45c0-3.02,2.44-5.45,5.45-5.45s5.45,2.44,5.45,5.45v222.06c0,3.01-2.44,5.45-5.45,5.45Z"/>
          <path class="cls-4" d="m468.12,185.44h-19.09c-3.02,0-5.45-2.44-5.45-5.45s2.44-5.45,5.45-5.45h19.09c3.02,0,5.45,2.44,5.45,5.45s-2.44,5.45-5.45,5.45Z"/>
          <path class="cls-4" d="m478.67,187.76c-7.98,0-13.99-2.88-16.93-8.1-5.9-10.52,3.15-26.03,21.05-36.09,15.71-8.83,27.91-6.68,34.43,4.93,3.87,6.89,7.23,20.21-13.72,31.97-8.37,4.7-17.19,7.29-24.84,7.29Zm21.54-38.73c-3.23,0-7.29,1.36-12.07,4.05-13.37,7.5-18.93,17.59-16.88,21.24.89,1.59,3.66,2.53,7.42,2.53,5.72,0,12.83-2.15,19.5-5.9,14.56-8.18,11.04-14.44,9.54-17.12-1.86-3.32-4.18-4.81-7.5-4.81Z"/>
          <path class="cls-4" d="m438.76,187.76h0c-7.64,0-16.46-2.59-24.84-7.29-8.12-4.55-13.13-9.57-15.35-15.33-2.05-5.33-1.49-11.08,1.63-16.64,6.51-11.6,18.72-13.76,34.43-4.93,17.91,10.06,26.96,25.57,21.05,36.08-2.94,5.23-8.95,8.11-16.93,8.11Zm-21.54-38.73c-3.32,0-5.63,1.49-7.5,4.81-2.02,3.61-1.52,5.94-.96,7.38,1.23,3.2,4.86,6.57,10.5,9.74,6.67,3.75,13.78,5.9,19.5,5.9,3.75,0,6.53-.95,7.42-2.54,2.05-3.64-3.52-13.73-16.88-21.23-4.79-2.69-8.85-4.05-12.08-4.05Z"/>
        </g>
        <g>
          <path class="cls-6" d="m378.19,781.29c-17.21.97-34.43,2.23-51.65,3.79-1.56,17.2-2.82,34.4-3.78,51.6,17.69-.96,35.39-1.74,53.08-2.34.6-17.68,1.38-35.37,2.34-53.05Z"/>
          <path class="cls-6" d="m325.13,753.77c-8.83,1.05-17.65,2.2-26.48,3.45-1.25,8.82-2.4,17.63-3.44,26.45,9.01-1.05,18.02-2.01,27.04-2.89.88-9,1.84-18.01,2.89-27.01Z"/>
          <path class="cls-6" d="m592.97,1081.29c8.86-.96,17.73-2.02,26.59-3.18,1.16-8.87,2.22-17.75,3.18-26.62-9.04.96-18.09,1.84-27.13,2.64-.8,9.05-1.68,18.1-2.64,27.15Z"/>
          <path class="cls-6" d="m538.94,1052.67c17.28-.84,34.56-1.96,51.84-3.36,1.4-17.29,2.53-34.58,3.37-51.88-17.73.84-35.47,1.52-53.2,2.02-.5,17.74-1.17,35.48-2.01,53.22Z"/>
          <path class="cls-6" d="m375.68,999.72c-17.73-.56-35.46-1.29-53.19-2.19.9,17.2,2.1,34.4,3.6,51.6,17.27,1.5,34.54,2.72,51.82,3.65-.93-17.69-1.68-35.37-2.24-53.05Z"/>
          <path class="cls-6" d="m294.63,1050.66c1.01,8.82,2.12,17.63,3.33,26.45,8.86,1.21,17.73,2.33,26.59,3.34-1.02-9-1.95-18.01-2.79-27.01-9.04-.85-18.09-1.77-27.13-2.78Z"/>
          <path class="cls-6" d="m592.42,752.9c.99,9.05,1.9,18.1,2.73,27.15,9.01.83,18.02,1.74,27.04,2.74-1-8.87-2.09-17.75-3.29-26.62-8.83-1.19-17.65-2.28-26.48-3.28Z"/>
          <path class="cls-6" d="m540.8,834.6c17.7.54,35.4,1.25,53.1,2.15-.9-17.29-2.08-34.59-3.54-51.88-17.22-1.46-34.44-2.62-51.67-3.49.87,17.74,1.57,35.48,2.11,53.22Z"/>
          <path class="cls-6" d="m610.98,902.56c10.12-9.64,20.12-19.07,29.93-28.22-7.04-6.6-14.11-13.3-21.18-20.07-16.12,15.36-32.81,31.47-49.78,48.01-7.74-.04-15.48-.07-23.22-.1-1.52-7.07-3.97-14-7.3-20.66-.18-13.78-.46-27.57-.83-41.36-14.16-.39-28.32-.67-42.48-.84-6.52-3.04-13.29-5.24-20.17-6.56.01-6.79.02-13.58.03-20.37,16.65-16.93,32.86-33.6,48.34-49.72-6.73-7.09-13.38-14.17-19.95-21.22-9.22,9.81-18.71,19.8-28.42,29.91-.03-12.87-.07-25.75-.14-38.62,15.6-16.75,30.47-33.1,44.32-48.74-6.42-7.24-12.72-14.45-18.88-21.61-12.42,14.45-25.7,29.45-39.63,44.77-14.29-15.47-27.9-30.58-40.61-45.12-6.14,7.23-12.41,14.51-18.81,21.82,14.59,16.18,30.32,33.15,46.83,50.57-.24,13-.47,26-.68,39-10.71-10.96-21.17-21.78-31.3-32.36-6.53,7.12-13.15,14.26-19.85,21.41,16.16,16.52,33.12,33.66,50.54,51.08-.09,6.2-.17,12.41-.25,18.62-8.08,1.22-16.04,3.65-23.65,7.21-14.01.19-28.02.5-42.02.9-.39,13.45-.68,26.91-.87,40.36-4.26,8.22-7.14,16.89-8.59,25.72-5.68-.01-11.37-.02-17.05-.02-16.93-16.65-33.61-32.86-49.73-48.34-7.09,6.73-14.17,13.38-21.22,19.94,9.81,9.22,19.8,18.72,29.91,28.43-12.87.03-25.75.07-38.62.13-16.75-15.6-33.1-30.48-48.75-44.33-7.24,6.42-14.45,12.72-21.61,18.88,14.46,12.42,29.46,25.7,44.78,39.64-15.46,14.29-30.58,27.89-45.11,40.6,7.23,6.14,14.51,12.42,21.82,18.82,16.17-14.59,33.14-30.31,50.56-46.82,13,.24,26,.47,39.01.68-10.96,10.71-21.77,21.17-32.36,31.3,7.12,6.53,14.27,13.15,21.42,19.85,16.52-16.16,33.65-33.11,51.08-50.53,5.37.08,10.74.15,16.11.22,1.51,8.38,4.31,16.61,8.36,24.42.18,12.59.45,25.19.81,37.78,12.27.35,24.55.61,36.82.8,10.46,5.77,21.71,9.28,33.11,10.42.04,5.86.09,11.73.14,17.59-17.52,17.39-34.58,34.51-50.87,51.03,6.65,7.16,13.23,14.32,19.72,21.45,10.2-10.58,20.74-21.39,31.52-32.33.13,13,.27,26.01.42,39.01-16.64,17.41-32.48,34.38-47.21,50.57,6.35,7.31,12.58,14.6,18.66,21.83,12.82-14.55,26.55-29.67,40.94-45.13,13.82,15.33,26.98,30.32,39.28,44.76,6.2-7.16,12.55-14.37,19.02-21.6-13.71-15.63-28.45-31.97-43.93-48.73.15-12.87.28-25.74.39-38.61,9.64,10.12,19.07,20.12,28.21,29.93,6.6-7.04,13.3-14.11,20.07-21.19-15.36-16.12-31.46-32.81-48-49.77.04-6.95.07-13.9.09-20.85,7.3-1.79,14.43-4.58,21.23-8.32,12.43-.17,24.85-.42,37.28-.75.34-12.92.6-25.85.77-38.77,4.44-8.85,7.29-18.21,8.51-27.7,6.93-.05,13.86-.11,20.79-.16,17.39,17.52,34.51,34.58,51.02,50.86,7.16-6.66,14.32-13.23,21.45-19.72-10.58-10.2-21.39-20.73-32.33-31.51,13-.13,26.01-.27,39.01-.43,17.41,16.63,34.38,32.48,50.56,47.2,7.32-6.35,14.6-12.58,21.84-18.67-14.54-12.82-29.66-26.54-45.12-40.93,15.33-13.82,30.32-26.99,44.77-39.29-7.16-6.2-14.36-12.55-21.6-19.01-15.64,13.72-31.98,28.46-48.75,43.94-12.87-.15-25.74-.28-38.61-.38Zm-125.41-36.51c.05,8.98.08,17.95.11,26.93-17-.05-34.01-.04-51.01.01.03-9.05.07-18.1.13-27.14,16.1-7.63,34.73-7.56,50.77.2Zm-50.9,80.81c17,.06,34,.06,51.01.01-.02,8.99-.06,17.99-.11,26.98-16.04,7.76-34.66,7.83-50.76.2-.06-9.07-.1-18.13-.13-27.2Zm-28.08-53.58c9.31-.06,18.62-.11,27.93-.14-.05,17-.06,34,0,51-9.72-.03-19.44-.07-29.17-.13-7.3-16.2-6.87-34.81,1.24-50.73Zm107.95,50.76c-8.71.05-17.43.08-26.14.11.05-17,.04-34.01,0-51.01,8.3.02,16.6.06,24.9.11,8.11,15.94,8.53,34.58,1.24,50.8Z"/>
        </g>
        <ellipse class="cls-3" cx="656.31" cy="759.02" rx="158.17" ry="199.07" transform="translate(-259.25 348.4) rotate(-25)"/>
      </g>
    </g>
  </g>
</svg>