<?xml version="1.0" encoding="UTF-8"?>
<svg id="Layer_1" data-name="Layer 1" xmlns="http://www.w3.org/2000/svg" viewBox="0 0 2000 718.37">
  <defs>
    <style>
      .cls-1 {
        fill: #d2d0c7;
      }

      .cls-1, .cls-2, .cls-3, .cls-4, .cls-5, .cls-6, .cls-7, .cls-8, .cls-9, .cls-10, .cls-11 {
        stroke-width: 0px;
      }

      .cls-2 {
        fill: #802123;
      }

      .cls-3 {
        fill: #171731;
      }

      .cls-4 {
        fill: #f0cc9c;
      }

      .cls-5 {
        fill: #fff;
      }

      .cls-6 {
        fill: #574e57;
      }

      .cls-7 {
        fill: #984c2a;
      }

      .cls-8 {
        fill: #c20b07;
      }

      .cls-9 {
        fill: #e6cd5d;
      }

      .cls-10 {
        fill: #db858d;
      }

      .cls-11 {
        fill: #b68432;
      }
    </style>
  </defs>
  <g>
    <g>
      <g>
        <path class="cls-11" d="m845.34,440.34c9.34-6.28,6.56-20.13-2.42-33.48-8.98-13.35-20.75-21.15-30.09-14.87-9.34,6.28-11.68,23.57-2.71,36.92,8.98,13.35,25.87,17.71,35.21,11.43Z"/>
        <path class="cls-7" d="m810.13,428.92c-2.2-3.27-3.71-6.77-4.61-10.29,18.45,11.07,36.39,7.43,44.95,4.54.26,1.16.45,2.3.56,3.41l-13.91,16.51c-9.11.78-20.27-4.17-26.99-14.17Z"/>
      </g>
      <g>
        <path class="cls-11" d="m778.69,509.21c19.65,1.14,22.47,29.73,32.79,0,9.75-28.06,9.99-61.26,29.88-84.92,62.09-76.81,108.88,36.83,167,14.42,10.58-2.55,17.3-28.6,19.05-40.75l65.04,23.22c-11.08,21.5-26.25,67.66-27.9,71.99-11.77,30.8-30.71,61.38-67.94,58.82-32.18-2.21-55.78-29.97-86.1-38.95-10.7-3.17-18,.9-23.77,9.87-11.71,18.19-24.14,34.96-46.45,40.08-12.18,2.8-23.8-.2-35.56-3.3-11.89-3.13-23.6-4.93-35.47-.58-20.57,7.54-36.07,26.93-48.73,43.85-1.23,1.64-2.44,3.29-3.64,4.96,0,0-30.42-21.73-30.42-21.73,0,0,72.57-78.12,92.23-76.98Z"/>
        <path class="cls-7" d="m926.32,482.91c20.45,2.75,33.99,48.04,76.72,47.41,33.81-.5,64.34-48.57,71.56-65.69-5.21,14.33-9.24,26.43-10.05,28.54-11.77,30.8-30.71,61.38-67.94,58.82-32.18-2.21-55.78-29.97-86.1-38.96-11.64-3.45-18.27,1.57-23.52,9.05,17.57-26.55,20.4-41.73,39.33-39.18Z"/>
        <path class="cls-7" d="m1020.08,425.12c2.36-4.5,6-16.5,7.57-28.96l65.58,23.52c-3.88,7.23-8.33,17.79-12.55,28.68-29.19,5.16-52.51-10.2-60.6-23.25Z"/>
      </g>
      <path class="cls-11" d="m1098.45,549.87c20.22,25.15-17.29,96.33-27.17,97.56-44.12,5.52-50.32,2.65-50.32,2.65,0,0,8.33-34.76,8.33-34.76,0,0,22.58,7.72,32.75-2.38,6.84-6.79,9.73-17.85,8.68-27.26-2.31-20.8-35.41-23.09-50.5-27.29-14.77-4.12-28.73-10.93-39.47-22.04-67.55-69.82,1.89-45.01,11.11-42.36,32.62,9.4,67.42,24.11,106.6,55.87Z"/>
    </g>
    <g>
      <path class="cls-11" d="m1033.23,290.77c23.95-13.75,56.21-14.55,82.82,2.61,12.25,7.9,22.86,18.6,30.28,31.17,7.74,13.11,9.76,29.8,22.3,39.72,5.6,4.43,42.34,10.01,41.25,19.09-3.32,27.63-42.75,45.87-67.68,49.28-53.42,7.3-135.19-8.76-142.91-72.73-3.83-31.74,11.37-56.19,33.94-69.14Z"/>
      <g>
        <path class="cls-6" d="m1193.6,379.12c.05,8.92,7.5,13.17,16.67,13.12,9.16-.05,16.57-4.39,16.52-13.31-.05-8.92-7.53-18.06-16.7-18.01-9.16.05-16.54,9.28-16.49,18.2Z"/>
        <path class="cls-5" d="m1212.75,370.33c-.46,2.61,1.82,4.48,4.89,5.24,3.08.76,5.79.12,6.24-2.49.46-2.61-1.57-5.91-4.64-6.67-3.08-.76-6.04,1.32-6.49,3.92Z"/>
      </g>
      <path class="cls-6" d="m895.64,171.96c-4.02-55.6,120.81-101.35,94.26-61.67-25.07,8.94-56.97,15.16-71.17,43.93-2.9,26.14,31.51,1.28,36.99-10.91,4.95-8.04,17.78-2.05,14.37,6.88-11.04,35.86-61.15,28.05-52.91,45.51,9.8,18.37,31.36,28.84,51.25,36.01,5.83,2.1,11.57-2.97,10.48-9.07-5.46-32.97,18.46-92.41,44.24-79.66,2.84,3.77,2.08,9.15-1.75,12.06-21.82,16.51-42.58,68.93-14.39,87.81,24.72,16.56,100.79,26.04,125.17,2.91,16.39-16.1,3.21-31.6,7.77-41.95,3.12-6.16,13.83-5.49,15.45,1.77,14.65,66.66-47.18,75.73-104.1,65.95-8.09-1.39-12.75,8.92-6.36,14.06,3.97,3.46,8.89,6.38,12.88,10.13,4.36,5.46-.79,13.15-7.74,12.44-18.29-1.88-45.38-38.44-53.42-48.31-65.06-20.01-107.17-46.46-101.04-87.88Z"/>
      <g>
        <path class="cls-3" d="m1117.18,355.97c-.14,7.4,3.02,15.3,8.56,19.3,8.56,6.18,14.11-2.86,13.3-11.22-.58-5.92-2.14-13.91-5.89-18.84-3.81-5.01-9.26-5.14-12.86.09-2.05,2.98-3.05,6.75-3.12,10.66Z"/>
        <path class="cls-5" d="m1123.71,344.36c-1.83,1.85-.56,5.17,2.09,8.17,2.65,2.99,5.67,4.53,7.5,2.67,1.83-1.85,1.56-6.19-1.08-9.19-2.65-2.99-6.67-3.51-8.5-1.66Z"/>
      </g>
      <g>
        <path class="cls-11" d="m1025.59,331.28c0,1.24-65.46,22.23-84.57-38.02-.21-.67,84.57-46.1,84.57,38.02Z"/>
        <path class="cls-7" d="m1016.45,327.86c.5.29-16.65-50.45-69.83-27.33-2.54,1.1,20.93-1.37,69.83,27.33Z"/>
      </g>
      <circle class="cls-10" cx="1078.82" cy="376.58" r="22.64" transform="translate(-46.32 177.25) rotate(-9.2)"/>
      <path class="cls-2" d="m1153.42,414.57c21.06,6.06,44.78-9.41,44.75-9.34-.16.42-.36.82-.55,1.23-7.51,7.57-17.6,13.71-27.96,18.2-13.8,2.08-28.31-2.83-33.53-19.91.05.52,6.79,6.79,17.3,9.81Z"/>
    </g>
  </g>
  <g>
    <g>
      <g>
        <path class="cls-11" d="m1618.56,498.63c9.34-6.28,6.56-20.13-2.42-33.48-8.98-13.35-20.75-21.15-30.09-14.87-9.34,6.28-11.68,23.57-2.71,36.92,8.98,13.35,25.87,17.71,35.21,11.43Z"/>
        <path class="cls-7" d="m1583.34,487.2c-2.2-3.27-3.71-6.77-4.61-10.29,18.45,11.07,36.39,7.43,44.95,4.54.26,1.16.45,2.3.56,3.41l-13.91,16.51c-9.11.78-20.27-4.17-26.99-14.17Z"/>
      </g>
      <g>
        <path class="cls-11" d="m1551.91,567.49c19.65,1.14,22.47,29.73,32.79,0,9.75-28.06,9.99-61.26,29.88-84.92,62.09-76.81,108.88,36.83,167,14.42,10.58-2.55,17.3-28.6,19.05-40.75l65.04,23.22c-11.08,21.5-26.25,67.66-27.9,71.99-11.77,30.8-30.71,61.38-67.94,58.82-32.18-2.21-55.78-29.97-86.1-38.95-10.7-3.17-18,.9-23.77,9.87-11.71,18.19-24.14,34.96-46.45,40.08-12.18,2.8-23.8-.2-35.56-3.3-11.89-3.13-23.6-4.93-35.47-.58-20.57,7.54-36.07,26.93-48.73,43.85-1.23,1.64-2.44,3.29-3.64,4.96,0,0-30.42-21.73-30.42-21.73,0,0,72.57-78.12,92.23-76.98Z"/>
        <path class="cls-7" d="m1699.53,541.19c20.45,2.75,33.99,48.04,76.72,47.41,33.81-.5,64.34-48.57,71.56-65.69-5.21,14.33-9.24,26.43-10.05,28.54-11.77,30.8-30.71,61.38-67.94,58.82-32.18-2.21-55.78-29.97-86.1-38.96-11.64-3.45-18.27,1.57-23.52,9.05,17.57-26.55,20.4-41.73,39.33-39.18Z"/>
        <path class="cls-7" d="m1793.29,483.4c2.36-4.5,6-16.5,7.57-28.96l65.58,23.52c-3.88,7.23-8.33,17.79-12.55,28.68-29.19,5.16-52.51-10.2-60.6-23.25Z"/>
      </g>
      <path class="cls-11" d="m1871.66,608.16c20.22,25.15-17.29,96.33-27.17,97.56-44.12,5.52-50.32,2.65-50.32,2.65,0,0,8.33-34.76,8.33-34.76,0,0,22.58,7.72,32.75-2.38,6.84-6.79,9.73-17.85,8.68-27.26-2.31-20.8-35.41-23.09-50.5-27.29-14.77-4.12-28.73-10.93-39.47-22.04-67.55-69.82,1.89-45.01,11.11-42.36,32.62,9.4,67.42,24.11,106.6,55.87Z"/>
    </g>
    <g>
      <path class="cls-11" d="m1806.44,349.06c23.95-13.75,56.21-14.55,82.82,2.61,12.25,7.9,22.86,18.6,30.28,31.17,7.74,13.11,9.76,29.8,22.3,39.72,5.6,4.43,42.34,10.01,41.25,19.09-3.32,27.63-42.75,45.87-67.68,49.28-53.42,7.3-135.19-8.76-142.91-72.73-3.83-31.74,11.37-56.19,33.94-69.14Z"/>
      <g>
        <path class="cls-8" d="m1966.81,437.41c.05,8.92,7.5,13.17,16.67,13.12,9.16-.05,16.57-4.39,16.52-13.31-.05-8.92-7.53-18.06-16.7-18.01s-16.54,9.28-16.49,18.2Z"/>
        <path class="cls-5" d="m1985.97,428.62c-.46,2.61,1.82,4.48,4.89,5.24,3.08.76,5.79.12,6.24-2.49.46-2.61-1.57-5.91-4.64-6.67-3.08-.76-6.04,1.32-6.49,3.92Z"/>
      </g>
      <path class="cls-6" d="m1668.85,230.25c-4.02-55.6,120.81-101.35,94.26-61.67-25.07,8.94-56.97,15.16-71.17,43.93-2.9,26.14,31.51,1.28,36.99-10.91,4.95-8.04,17.78-2.05,14.37,6.88-11.04,35.86-61.15,28.05-52.91,45.51,9.8,18.37,31.36,28.84,51.25,36.01,5.83,2.1,11.57-2.97,10.48-9.07-5.46-32.97,18.46-92.41,44.24-79.66,2.84,3.77,2.08,9.15-1.75,12.06-21.82,16.51-42.58,68.93-14.39,87.81,24.72,16.56,100.79,26.04,125.17,2.91,16.39-16.1,3.21-31.6,7.77-41.95,3.12-6.16,13.83-5.49,15.45,1.77,14.65,66.66-47.18,75.73-104.1,65.95-8.09-1.39-12.75,8.92-6.36,14.06,3.97,3.46,8.89,6.38,12.88,10.13,4.36,5.46-.79,13.16-7.74,12.44-18.29-1.88-45.38-38.44-53.42-48.31-65.06-20.01-107.17-46.46-101.04-87.88Z"/>
      <g>
        <path class="cls-3" d="m1890.39,414.26c-.14,7.4,3.02,15.3,8.56,19.3,8.56,6.18,14.11-2.86,13.3-11.22-.58-5.92-2.14-13.91-5.89-18.84-3.81-5.01-9.26-5.14-12.86.09-2.05,2.98-3.05,6.75-3.12,10.66Z"/>
        <path class="cls-5" d="m1896.92,402.64c-1.83,1.85-.56,5.17,2.09,8.17,2.65,2.99,5.67,4.53,7.5,2.67,1.83-1.85,1.56-6.19-1.08-9.19-2.65-2.99-6.67-3.51-8.5-1.66Z"/>
      </g>
      <g>
        <path class="cls-11" d="m1798.8,389.56c0,1.24-65.46,22.23-84.57-38.02-.21-.67,84.57-46.1,84.57,38.02Z"/>
        <path class="cls-7" d="m1789.66,386.15c.5.29-16.65-50.45-69.83-27.33-2.54,1.1,20.93-1.37,69.83,27.33Z"/>
      </g>
      <circle class="cls-10" cx="1852.04" cy="434.86" r="22.64" transform="translate(-45.74 302.28) rotate(-9.22)"/>
      <path class="cls-2" d="m1926.63,472.86c21.06,6.06,44.78-9.41,44.75-9.34-.16.42-.36.82-.55,1.23-7.51,7.57-17.6,13.71-27.96,18.2-13.8,2.08-28.31-2.83-33.53-19.91.05.52,6.79,6.79,17.3,9.81Z"/>
    </g>
  </g>
  <g>
    <g>
      <g>
        <path class="cls-11" d="m1296.98,354.87c9.34-6.28,6.56-20.13-2.42-33.48-8.98-13.35-20.75-21.15-30.09-14.87-9.34,6.28-11.68,23.57-2.71,36.92,8.98,13.35,25.87,17.71,35.21,11.43Z"/>
        <path class="cls-7" d="m1261.76,343.44c-2.2-3.27-3.71-6.77-4.61-10.29,18.45,11.07,36.39,7.43,44.95,4.54.26,1.16.45,2.3.56,3.41l-13.91,16.51c-9.11.78-20.27-4.17-26.99-14.17Z"/>
      </g>
      <g>
        <path class="cls-11" d="m1230.33,423.74c19.65,1.14,22.47,29.73,32.79,0,9.75-28.06,9.99-61.26,29.88-84.92,62.09-76.81,108.88,36.83,167,14.42,10.58-2.55,17.3-28.6,19.05-40.75l65.04,23.22c-11.08,21.5-26.25,67.66-27.9,71.99-11.77,30.8-30.71,61.38-67.94,58.82-32.18-2.21-55.78-29.97-86.1-38.95-10.7-3.17-18,.9-23.77,9.87-11.71,18.19-24.14,34.96-46.45,40.08-12.18,2.8-23.8-.2-35.56-3.3-11.89-3.13-23.6-4.93-35.47-.58-20.57,7.54-36.07,26.93-48.73,43.85-1.23,1.64-2.44,3.29-3.64,4.96,0,0-30.42-21.73-30.42-21.73,0,0,72.57-78.12,92.23-76.98Z"/>
        <path class="cls-7" d="m1377.95,397.43c20.45,2.75,33.99,48.04,76.72,47.41,33.81-.5,64.34-48.57,71.56-65.69-5.21,14.33-9.24,26.43-10.05,28.54-11.77,30.8-30.71,61.38-67.94,58.82-32.18-2.21-55.78-29.97-86.1-38.96-11.64-3.45-18.27,1.57-23.52,9.05,17.57-26.55,20.4-41.73,39.33-39.18Z"/>
        <path class="cls-7" d="m1471.71,339.65c2.36-4.5,6-16.5,7.57-28.96l65.58,23.52c-3.88,7.23-8.33,17.79-12.55,28.68-29.19,5.16-52.51-10.2-60.6-23.25Z"/>
      </g>
      <path class="cls-11" d="m1550.08,464.4c20.22,25.15-17.29,96.33-27.17,97.56-44.12,5.52-50.32,2.65-50.32,2.65,0,0,8.33-34.76,8.33-34.76,0,0,22.58,7.72,32.75-2.38,6.84-6.79,9.73-17.85,8.68-27.26-2.31-20.8-35.41-23.09-50.5-27.29-14.77-4.12-28.73-10.93-39.47-22.04-67.55-69.82,1.89-45.01,11.11-42.36,32.62,9.4,67.42,24.11,106.6,55.87Z"/>
    </g>
    <g>
      <path class="cls-11" d="m1484.86,205.3c23.95-13.75,56.21-14.55,82.81,2.61,12.25,7.9,22.86,18.6,30.28,31.17,7.74,13.11,9.76,29.8,22.3,39.72,5.6,4.43,42.34,10.01,41.25,19.09-3.32,27.63-42.74,45.87-67.68,49.28-53.42,7.3-135.19-8.76-142.91-72.73-3.83-31.74,11.37-56.19,33.94-69.14Z"/>
      <g>
        <path class="cls-6" d="m1645.23,293.65c.05,8.92,7.5,13.17,16.67,13.12,9.16-.05,16.57-4.39,16.52-13.31-.05-8.92-7.53-18.06-16.7-18.01-9.16.05-16.54,9.28-16.49,18.2Z"/>
        <path class="cls-5" d="m1664.39,284.86c-.46,2.61,1.82,4.48,4.89,5.24,3.08.76,5.79.12,6.24-2.49.46-2.61-1.57-5.91-4.64-6.67-3.08-.76-6.04,1.32-6.49,3.92Z"/>
      </g>
      <path class="cls-6" d="m1347.27,86.49c-4.02-55.6,120.81-101.35,94.26-61.67-25.07,8.94-56.97,15.16-71.17,43.93-2.9,26.14,31.51,1.28,36.99-10.91,4.95-8.04,17.78-2.05,14.37,6.88-11.04,35.86-61.15,28.05-52.91,45.51,9.8,18.37,31.37,28.84,51.25,36.01,5.83,2.1,11.57-2.97,10.48-9.07-5.46-32.97,18.46-92.41,44.24-79.66,2.84,3.77,2.09,9.15-1.75,12.06-21.82,16.51-42.58,68.93-14.39,87.81,24.72,16.56,100.79,26.04,125.17,2.91,16.39-16.1,3.21-31.6,7.77-41.95,3.12-6.16,13.83-5.49,15.45,1.77,14.65,66.66-47.18,75.73-104.1,65.95-8.09-1.39-12.75,8.92-6.36,14.06,3.97,3.46,8.89,6.38,12.88,10.13,4.36,5.46-.79,13.16-7.74,12.44-18.29-1.88-45.38-38.44-53.42-48.31-65.06-20.01-107.17-46.46-101.04-87.88Z"/>
      <g>
        <path class="cls-3" d="m1568.81,270.5c-.14,7.4,3.02,15.3,8.56,19.3,8.56,6.18,14.11-2.86,13.3-11.22-.58-5.92-2.14-13.91-5.89-18.84-3.81-5.01-9.26-5.14-12.86.09-2.05,2.98-3.05,6.75-3.12,10.66Z"/>
        <path class="cls-5" d="m1575.34,258.88c-1.83,1.85-.56,5.17,2.09,8.17,2.65,2.99,5.67,4.53,7.5,2.67,1.83-1.85,1.56-6.19-1.08-9.19-2.65-2.99-6.67-3.51-8.5-1.66Z"/>
      </g>
      <g>
        <path class="cls-11" d="m1477.22,245.81c0,1.24-65.46,22.23-84.57-38.02-.21-.67,84.57-46.1,84.57,38.02Z"/>
        <path class="cls-7" d="m1468.08,242.39c.5.29-16.65-50.45-69.83-27.33-2.54,1.1,20.93-1.37,69.83,27.33Z"/>
      </g>
      <circle class="cls-10" cx="1530.46" cy="291.11" r="22.64" transform="translate(-26.85 248.32) rotate(-9.2)"/>
      <path class="cls-2" d="m1605.05,329.1c21.06,6.06,44.78-9.41,44.75-9.34-.16.42-.36.82-.55,1.23-7.51,7.57-17.6,13.71-27.96,18.2-13.8,2.08-28.31-2.83-33.53-19.91.05.52,6.79,6.79,17.3,9.81Z"/>
    </g>
  </g>
  <g>
    <path class="cls-2" d="m210.28,400.09c-10.92,63.18,24.85,124.68,111.15,132.14,128.44,11.11,186.19-58.71,166.72-119.79-44.46-139.55-81.64-61.83-160.55-97.56-65.45-29.64-100.03-14.82-117.32,85.21Z"/>
    <g>
      <path class="cls-9" d="m135.38,645.64c8.42-27.29,16.65-52.86,24.37-75.12h23.55s-22.71,73.89-22.71,73.89c89.6-3.35,228.84.56,325.48,2.74l-23.56-76.63h23.55c7.92,22.81,16.37,49.11,25,77.17,48.7.99,120.74,14.58,145.13-40.6,16.66-37.7-1.1-80.66-45.24-82.5-42.54-2.98-58.04,68.33-10.12,70.62,13.28-.19,13.21,20.62,0,20.43-74.63-1.83-59.14-114.9,10.11-111.48,40.5,0,73.44,32.95,73.44,73.44,0,49.21-40.04,89.25-89.25,89.25H79.66c-20.27-11.81,6.03-18.13,55.72-21.21Z"/>
      <g>
        <path class="cls-11" d="m473.78,607.2l-11.27-36.68h23.55c3.16,9.09,6.4,18.76,9.7,28.85-5.58,2.19-12.92,4.89-21.98,7.83Z"/>
        <path class="cls-11" d="m159.75,570.52h23.55s-19.81,64.45-19.81,64.45c-7.9-.66-15.93-1.42-24.09-2.28,7.01-22.43,13.86-43.48,20.35-62.17Z"/>
      </g>
      <g>
        <path class="cls-9" d="m559.22,431.4c-50.81-4.38-89.92-9.3-121.04,37.77-20.51,31.02-35.9,61.96-78.86,58.45-50.54-4.14-72.06-69.28-87.22-108.78-24.69-64.34-74.37-104.75-141.87-117.47C88.22,293.44.22,286.79,0,350.1c4.18,21.2,32.45,24.45,47.33,35.74,46.79,42.6,69.26,115.68,58.42,177.48,2.19,60.78,489.75,66.89,410.99-21.36-37.11-38.82-20.18-51.35,12.23-37.71,32.42,13.64,68.27-69.57,30.24-72.84Z"/>
        <path class="cls-2" d="m48.51,346.26c76.23-27.06,152.68,17.54,195.95,79.71,35.08,50.41,53.03,149.18,133.76,140.5,38.7-4.16,52.12-36.11,73.54-63.33,32.49-41.31,74.05-37.1,120.35-33.09-7.47,21.07-25.79,41.5-43.14,34.2-32.42-13.64-49.34-1.11-12.23,37.71,78.76,88.25-408.8,82.14-410.99,21.36,10.84-61.8-11.63-134.87-58.42-177.48-9.63-7.31-24.87-11.25-35.56-18.88,12.14-9.55,25.76-16.8,36.74-20.7Z"/>
        <path class="cls-8" d="m79.92,385.89c29.88,49.61,50.08,98.18,51.32,177.22.02,0,37.44-13.08,20.57-59.03-2.6-7.07-7.33-17.76-5.52-25.6,1.94-8.4,10.76-11.71,11.46-21.32,1.87-25.79-29.59-15.21-38.99-32.88-12.22-22.97-16.06-62.49-38.84-38.4Z"/>
      </g>
    </g>
    <g>
      <g>
        <path class="cls-5" d="m231.27,272.89c-16.48-49.44-2.3-149.53,38.28-171.66,54.42-33.19,151.9-45.69,172.9,29.64,5.33,19.12,16.29,43.97,39.52,67.92,159.31,164.25-195.13,240.82-250.7,74.1Z"/>
        <path class="cls-1" d="m269.56,101.22c9.45-5.77,20.21-10.9,31.63-15.07-4.76,29.06-7.36,58.6-8.87,87.99-1.87,36.29-5.19,77.89,13.19,110.75,15.91,28.46,41.84,51.28,73.25,60.9,26.96,8.27,56.39,8.05,84.97,5.36-75.8,32.26-201.24,15.35-232.45-78.27-16.48-49.44-2.3-149.53,38.28-171.66Z"/>
        <path class="cls-1" d="m482.56,199.4c7.92,8.22,14.54,16.22,19.99,23.97-12.91,17.62-76.67,33.74-74.29,2.42,0,0,42.82-27.53,54.3-26.39Z"/>
        <path class="cls-4" d="m314.02,185.2c13.58-40.75,54.76-113.96,110.74-84.51,11.73,6.17,20.18,17.24,24.71,29.55,4.49,12.21,2.46,25.96,11.2,36.47,2.99,3.59,8.87,7.12,8.97,12.31,1.24,61.75-177.64,72.27-155.61,6.18Z"/>
        <path class="cls-3" d="m433.83,155.45c1.79,3.71-4.68,5.27-6.9,5.81-10.35,2.41-24.4,8.32-32.92,13.37,0,0,2.26-13.27,15-19.78,10.87-5.55,22.1-5.03,24.82.61Z"/>
        <path class="cls-5" d="m403.73,236.64c26.31-8.42,39.52-63.24,77.46-49.13,1.65.3,13.13,23.63-11.54,42.12-23.42,20.5-97.85,16.17-65.92,7.02Z"/>
        <circle class="cls-10" cx="370.63" cy="196.93" r="22.64" transform="translate(-35.25 90.12) rotate(-13.24)"/>
        <g>
          <path class="cls-10" d="m442.85,178.82c-.82,12.44,17.01,16.3,27.7,16.67,15.34.52,27.79-5.42,27.79-16.67,0-11.25-12.44-22.85-27.79-22.85-9.46,0-23.63,9.45-26.83,18.74-.51,1.47-.79,2.84-.87,4.12Z"/>
          <path class="cls-5" d="m471.02,165.71c-.68,3.29,2.72,5.65,7.33,6.61,4.61.96,8.67.15,9.35-3.14s-2.35-7.46-6.96-8.41c-4.61-.96-9.05,1.66-9.73,4.95Z"/>
        </g>
      </g>
      <g>
        <g>
          <path class="cls-8" d="m160.04,71.18s158.24-145.61,290.61,22.63l-242.85,111.15s-7.47-54.16-4.94-80.27c3.71-38.28-26.72-24.32-42.83-53.5Z"/>
          <path class="cls-2" d="m167.53,81.18c18.29-5.93,89.61-28.18,97.09-17.01,8.58,12.83-13.66,32.24-23.46,65.45-9.8,33.22-10.45,41.27-10.45,41.27l-24.32,22.64c-2.03-17.33-5.31-50.23-3.51-68.85,3.19-32.91-18.86-27.21-35.34-43.51Z"/>
        </g>
        <g>
          <path class="cls-5" d="m115.74,111.27c8.45,17.74,20.89,21.12,40.58,13.13,19.69-7.98,22.18-25.48,13.73-43.23-8.45-17.74-17.85-21-37.54-13.02-19.69,7.98-25.22,25.37-16.77,43.11Z"/>
          <path class="cls-1" d="m112.86,88.32c5.1,11.14,21.34,17.93,33.93,16.92,7.61-.61,19.61-5.81,27.17-12.54,2.62,13.43-2.27,25.47-17.64,31.7-19.69,7.98-32.13,4.61-40.58-13.13-3.81-8-4.77-15.92-2.88-22.94Z"/>
        </g>
        <g>
          <path class="cls-5" d="m207.81,232.13c23.15,28.18,70.78-50.8,142.02-87.68,71.25-36.89,120.42-10.81,109.91-54.34-8.64-35.82-75.73-35.42-152.18,10.39-68.49,41.05-128.16,97.05-99.76,131.63Z"/>
          <path class="cls-1" d="m207.81,232.13c-20.79-25.31,5.62-62.11,48.13-96.11-11.08,25.72,6.21,38.07,45.73,20.78,37.98-16.62,72.09-25.08,91.9-29.05-13.22,3.43-27.94,8.51-43.74,16.7-71.25,36.89-118.88,115.86-142.02,87.68Z"/>
        </g>
      </g>
    </g>
    <path class="cls-2" d="m471.59,447.99c220.55,73.23,463.05,73.6,682.8,1.08,80.28-24.3,163.29-49.44,249.42-43.99,155.73,10.47,285.06,102.3,422.31,165.43,6.94,2.96,2.08,14.63-5.02,11.02-135.77-62.3-265-154.05-418.06-164.36-84-5.3-165.93,19.52-245.15,43.5-243.8,75.63-501.13,73.8-688.44-7.03l2.14-5.66Z"/>
    <g>
      <path class="cls-8" d="m292.42,342.12c19.57,4.56,35.89,29.89,50.09,40.94,26.19,20.37,49.57,12.03,83.25,16.65,61.88,8.49-1.11,82.14-1.11,82.14-29.97,13.32-55.16,12.21-79.72,8.14-51.72-8.57-82.48-53.21-87.89-106.93-1.5-14.87,4.75-33.86,19.65-39.75,5.47-2.16,10.71-2.36,15.73-1.19Z"/>
      <path class="cls-5" d="m397.43,442.86c-6.84,27.63-.67,42.7,32.68,42.45,50.9.34,60.26-89.52,4.32-88.91-23.45-.65-33.12,30.8-37,46.46Z"/>
      <path class="cls-3" d="m472.1,469.25c17.89,1.25,47.23,11.42,57.11-5.59,9.76-16.8-.48-37.3-15.33-47.22-19.82-13.25-45.76-7.26-66.06,1.53-14.45,6.26-17.12,27.25-13.06,40.61,4.99,16.4,19.14,9.41,37.34,10.68Z"/>
    </g>
  </g>
  <g>
    <path class="cls-2" d="m1367.4,394.35h29.21s13.27-61.79,0-75.06c-5.16-5.16-29.21,0-29.21,0v75.06Z"/>
    <path class="cls-2" d="m1381,419.85l10.03-27.44s-88.26-41.31-112.84-41.27c-7.3.01-10.03,27.44-10.03,27.44l112.84,41.27Z"/>
    <g>
      <circle class="cls-9" cx="1383.77" cy="404.66" r="22.74"/>
      <ellipse class="cls-5" cx="1381.06" cy="394.73" rx="8.29" ry="6.67"/>
    </g>
  </g>
  <g>
    <path class="cls-2" d="m1688.98,538.11h29.21s13.27-61.79,0-75.06c-5.16-5.16-29.21,0-29.21,0v75.06Z"/>
    <path class="cls-2" d="m1713.84,533.4l-4.67-28.84s-97.19,7.14-118.61,19.2c-6.36,3.58-4.47,30.32-4.47,30.32l127.75-20.68Z"/>
    <g>
      <circle class="cls-9" cx="1706.54" cy="521.16" r="22.74" transform="translate(131.32 1359.35) rotate(-45)"/>
      <ellipse class="cls-5" cx="1703.82" cy="511.22" rx="8.29" ry="6.67"/>
    </g>
  </g>
  <g>
    <path class="cls-2" d="m910.2,492.73l28.97,3.79s22.3-68.12,11.1-84.84c-4.36-6.51-28.97-3.79-28.97-3.79l-11.1,84.84Z"/>
    <path class="cls-2" d="m919.4,517.27l13.93-25.68s-81.29-53.75-105.62-57.29c-7.23-1.05-13.93,25.68-13.93,25.68l105.62,57.29Z"/>
    <g>
      <circle class="cls-9" cx="923.69" cy="499.7" r="22.74"/>
      <ellipse class="cls-5" cx="920.98" cy="489.77" rx="8.29" ry="6.67"/>
    </g>
  </g>
</svg>